<?xml version="1.0" encoding="UTF-8"?><svg id="Ebene_2" xmlns="http://www.w3.org/2000/svg" viewBox="0 0 46.46 5.79"><defs><style>.cls-1,.cls-2{stroke-width:0px;}.cls-2{fill:#fff;}</style></defs><g id="Ebene_2-2"><path class="cls-2" d="m2.87,5.79c-.89,0-1.78,0-2.67,0-.13,0-.21-.06-.2-.19C0,3.79,0,1.98,0,.18,0,.06.08.01.19.01c1.84.03,3.72-.06,5.54.03.03.03.04.07.05.13,0,1.8,0,3.62,0,5.42,0,.14-.09.21-.22.19-.89,0-1.78,0-2.67,0h-.03Zm-.34-5.03c-.41.04-1.15-.19-1.25.39-.01.25.25.4.48.41.38.03.75,0,1.13,0,.25,0,.52,0,.73.17.46.42.05,1.03-.53.96-.2.01-.27-.16-.3-.33-.14-.62-.87-.76-1.4-.61-.49.19-.81.8-.5,1.26.14.28.52.4.49.76.02.38-.08.82.1,1.15.12.23.39.32.56.08.22-.26.15-.65.14-.97,0-.18.05-.2.12-.08.36.67,1.06,1.07,1.77,1.21.34.04.68-.32.49-.65-.1-.17-.33-.21-.52-.23-.25-.02-.51-.15-.71-.33-.24-.21-.38-.43.03-.45,1.29-.1,1.75-1.77.68-2.49-.43-.31-.97-.26-1.47-.25h-.03Z"/><path class="cls-1" d="m2.56.77c.51,0,1.05-.06,1.49.27,1.02.72.6,2.34-.65,2.47-.41.02-.4.15-.12.42.21.2.5.35.78.37.19,0,.42.06.51.24.17.34-.19.68-.53.63-.65-.15-1.32-.49-1.67-1.1-.04-.06-.09-.16-.14-.19-.05-.03-.06.05-.06.16.01.36.1.82-.23,1.06-.14.12-.33.03-.43-.11-.14-.16-.15-.37-.15-.59-.02-.27.04-.56-.02-.83-.03-.09-.1-.15-.17-.21-.24-.19-.43-.48-.42-.8.05-.33.29-.66.63-.79.33-.08.73-.09,1.03.09.22.14.35.35.4.6.02.11.06.22.18.24.49.1.99-.26.78-.77-.18-.37-.66-.36-1.02-.35-.34.02-.66.02-.99,0-.16-.01-.32-.07-.42-.2-.13-.17-.04-.39.12-.51.1-.08.23-.1.36-.09.23,0,.49,0,.72,0h.03Zm-.84,1.74c-.07.01-.14.08-.08.15.08.08.43.11.38-.07-.04-.1-.19-.09-.28-.08h-.02Z"/><path class="cls-2" d="m1.75,2.5c.07-.01.17-.01.23.03.06.04.07.13,0,.16-.05.02-.12.02-.18.02-.2,0-.25-.16-.08-.2h.02Z"/><path class="cls-1" d="m6.16,4.38h.56c-.1.36-.38.61-.87.61-.6,0-.97-.4-.97-.96s.36-.96.93-.96c.62,0,.93.45.93,1.11h-1.3c0,.25.19.39.39.39s.29-.09.32-.18Zm-.71-.55h.74c0-.25-.15-.38-.37-.38s-.37.13-.37.38Z"/><path class="cls-1" d="m7.52,2.39v2.53h-.57v-2.53h.57Z"/><path class="cls-1" d="m7.78,2.65c0-.16.12-.25.28-.25s.28.09.28.25-.12.25-.28.25-.28-.09-.28-.25Zm.57.47v1.81h-.57v-1.81h.57Z"/><path class="cls-1" d="m9.46,3.45c-.21,0-.3.08-.32.25h-.53c.02-.35.27-.64.86-.64.51,0,.79.2.79.77v.83c0,.1.04.13.11.13v.13c-.11.04-.22.06-.33.06-.25,0-.33-.12-.33-.25h0c-.12.13-.33.25-.57.25-.38,0-.59-.22-.59-.52,0-.36.27-.53.69-.61.23-.05.46-.08.46-.23,0-.11-.07-.17-.23-.17Zm.23.82v-.22c-.07.03-.16.05-.29.08-.22.05-.3.14-.3.25,0,.15.09.21.23.21.24,0,.36-.16.36-.33Z"/><path class="cls-1" d="m12.47,4.02c0,.59-.31.96-.79.96-.26,0-.45-.14-.52-.24h0v.18h-.57v-2.53h.57v.9h0c.07-.1.26-.24.52-.24.48,0,.79.37.79.96Zm-.57,0c0-.35-.14-.54-.37-.54s-.37.18-.37.54.14.54.37.54.37-.18.37-.54Z"/><path class="cls-1" d="m13.24,2.39v2.53h-.57v-2.53h.57Z"/><path class="cls-1" d="m14.71,4.38h.56c-.1.36-.38.61-.87.61-.6,0-.97-.4-.97-.96s.36-.96.93-.96c.62,0,.93.45.93,1.11h-1.3c0,.25.19.39.39.39s.29-.09.32-.18Zm-.71-.55h.74c0-.25-.15-.38-.37-.38s-.37.13-.37.38Z"/><path class="cls-1" d="m16.14,2.39h1.12c.7,0,1.13.45,1.13,1.27s-.39,1.26-1.09,1.26h-1.16v-2.53Zm.64,2.01h.42c.4,0,.56-.28.56-.74s-.16-.75-.56-.75h-.42v1.49Z"/><path class="cls-1" d="m19.8,4.38h.56c-.1.36-.38.61-.87.61-.6,0-.97-.4-.97-.96s.36-.96.93-.96c.62,0,.93.45.93,1.11h-1.3c0,.25.19.39.39.39s.29-.09.32-.18Zm-.71-.55h.74c0-.25-.15-.38-.37-.38s-.37.13-.37.38Z"/><path class="cls-1" d="m22.47,4.02c0,.59-.31.96-.79.96-.26,0-.45-.14-.52-.24h0v.18h-.57v-2.53h.57v.9h0c.07-.1.26-.24.52-.24.48,0,.79.37.79.96Zm-.57,0c0-.35-.14-.54-.37-.54s-.37.18-.37.54.14.54.37.54.37-.18.37-.54Z"/><path class="cls-1" d="m23.33,3.54v.75c0,.21.07.21.32.21v.42c-.1.02-.19.04-.35.04-.41,0-.53-.22-.53-.63v-.79h-.25v-.42h.25v-.51h.57v.51h.32v.42h-.32Z"/><path class="cls-1" d="m25.59,2.86c-.42,0-.56.33-.56.8s.14.8.56.8c.34,0,.47-.2.51-.48h.64c-.06.59-.42,1.01-1.12,1.01-.8,0-1.23-.56-1.23-1.32s.43-1.32,1.23-1.32c.69,0,1.06.41,1.12,1h-.64c-.05-.28-.17-.48-.51-.48Z"/><path class="cls-1" d="m27.85,4.98c-.61,0-.97-.4-.97-.96s.36-.96.97-.96.97.4.97.96-.36.96-.97.96Zm0-.42c.25,0,.4-.19.4-.54s-.15-.54-.4-.54-.4.19-.4.54.15.54.4.54Z"/><path class="cls-1" d="m30.77,3.7v1.22h-.57v-1.04c0-.27-.1-.36-.28-.36-.22,0-.34.11-.34.36v1.05h-.57v-1.81h.57v.26h0c.1-.17.27-.32.59-.32.35,0,.59.23.59.64Z"/><path class="cls-1" d="m32.63,4.39c0,.38-.29.59-.79.59-.65,0-.9-.29-.91-.66h.53c.02.18.14.27.36.27.16,0,.25-.05.25-.16,0-.16-.17-.18-.46-.24-.31-.07-.65-.18-.65-.56,0-.33.28-.58.79-.58.58,0,.81.29.83.61h-.53c-.02-.15-.1-.22-.28-.22-.16,0-.24.06-.24.15,0,.13.11.13.39.19.36.08.71.2.71.61Z"/><path class="cls-1" d="m33.72,4.98c-.61,0-.97-.4-.97-.96s.36-.96.97-.96.97.4.97.96-.36.96-.97.96Zm0-.42c.25,0,.4-.19.4-.54s-.15-.54-.4-.54-.4.19-.4.54.15.54.4.54Z"/><path class="cls-1" d="m35.46,2.39v2.53h-.57v-2.53h.57Z"/><path class="cls-1" d="m35.72,2.65c0-.16.12-.25.28-.25s.28.09.28.25-.12.25-.28.25-.28-.09-.28-.25Zm.57.47v1.81h-.57v-1.81h.57Z"/><path class="cls-1" d="m38.37,2.39v2.53h-.57v-.18h0c-.07.1-.26.24-.52.24-.48,0-.79-.37-.79-.96s.31-.96.79-.96c.26,0,.45.14.52.24h0v-.9h.57Zm-.58,1.62c0-.35-.14-.54-.37-.54s-.37.18-.37.54.14.54.37.54.37-.18.37-.54Z"/><path class="cls-1" d="m39.48,3.45c-.21,0-.3.08-.32.25h-.53c.02-.35.27-.64.86-.64.51,0,.79.2.79.77v.83c0,.1.04.13.11.13v.13c-.11.04-.22.06-.33.06-.25,0-.33-.12-.33-.25h0c-.12.13-.33.25-.57.25-.38,0-.59-.22-.59-.52,0-.36.27-.53.69-.61.23-.05.46-.08.46-.23,0-.11-.07-.17-.23-.17Zm.23.82v-.22c-.07.03-.16.05-.29.08-.22.05-.3.14-.3.25,0,.15.09.21.23.21.24,0,.36-.16.36-.33Z"/><path class="cls-1" d="m41.29,3.54v.75c0,.21.07.21.32.21v.42c-.1.02-.19.04-.35.04-.41,0-.53-.22-.53-.63v-.79h-.25v-.42h.25v-.51h.57v.51h.32v.42h-.32Z"/><path class="cls-1" d="m41.81,2.65c0-.16.12-.25.28-.25s.28.09.28.25-.12.25-.28.25-.28-.09-.28-.25Zm.57.47v1.81h-.57v-1.81h.57Z"/><path class="cls-1" d="m43.54,4.98c-.61,0-.97-.4-.97-.96s.36-.96.97-.96.97.4.97.96-.36.96-.97.96Zm0-.42c.25,0,.4-.19.4-.54s-.15-.54-.4-.54-.4.19-.4.54.15.54.4.54Z"/><path class="cls-1" d="m46.46,3.7v1.22h-.57v-1.04c0-.27-.1-.36-.28-.36-.22,0-.34.11-.34.36v1.05h-.57v-1.81h.57v.26h0c.1-.17.27-.32.59-.32.35,0,.59.23.59.64Z"/></g></svg>