<?xml version="1.0" encoding="utf-8"?>
<!-- Generator: Adobe Illustrator 28.0.0, SVG Export Plug-In . SVG Version: 6.00 Build 0)  -->
<svg version="1.1" id="Ebene_2_00000039843051833501116860000011558478868333582235_"
	 xmlns="http://www.w3.org/2000/svg" xmlns:xlink="http://www.w3.org/1999/xlink" x="0px" y="0px" viewBox="0 0 46.5 5.8"
	 style="enable-background:new 0 0 46.5 5.8;" xml:space="preserve">
<style type="text/css">
	.st0{fill:#FFFFFF;}
</style>
<g>
	<path class="st0" d="M2.6,0.8c0.5,0,1-0.1,1.5,0.3c1,0.7,0.6,2.3-0.7,2.5C3,3.5,3,3.7,3.3,3.9c0.2,0.2,0.5,0.3,0.8,0.4
		c0.2,0,0.4,0.1,0.5,0.2C4.7,4.9,4.4,5.2,4,5.2C3.4,5,2.7,4.7,2.4,4.1c0-0.1-0.1-0.2-0.1-0.2c0,0-0.1,0-0.1,0.2
		c0,0.4,0.1,0.8-0.2,1.1C1.8,5.2,1.6,5.1,1.5,5C1.4,4.8,1.4,4.6,1.4,4.4c0-0.3,0-0.6,0-0.8c0-0.1-0.1-0.2-0.2-0.2
		C0.9,3.2,0.7,2.9,0.8,2.6C0.8,2.2,1,1.9,1.4,1.8c0.3-0.1,0.7-0.1,1,0.1C2.6,2,2.8,2.2,2.8,2.5c0,0.1,0.1,0.2,0.2,0.2
		c0.5,0.1,1-0.3,0.8-0.8c-0.2-0.4-0.7-0.4-1-0.4c-0.3,0-0.7,0-1,0c-0.2,0-0.3-0.1-0.4-0.2C1.2,1.2,1.3,1,1.5,0.9
		c0.1-0.1,0.2-0.1,0.4-0.1C2.1,0.8,2.3,0.8,2.6,0.8L2.6,0.8L2.6,0.8z M1.7,2.5c-0.1,0-0.1,0.1-0.1,0.2C1.7,2.7,2.1,2.8,2,2.6
		C2,2.5,1.8,2.5,1.7,2.5C1.7,2.5,1.7,2.5,1.7,2.5z"/>
	<path class="st0" d="M6.2,4.4h0.6C6.6,4.7,6.3,5,5.8,5c-0.6,0-1-0.4-1-1s0.4-1,0.9-1c0.6,0,0.9,0.5,0.9,1.1H5.4
		c0,0.2,0.2,0.4,0.4,0.4S6.1,4.5,6.2,4.4L6.2,4.4z M5.4,3.8h0.7c0-0.2-0.2-0.4-0.4-0.4S5.4,3.6,5.4,3.8z"/>
	<path class="st0" d="M7.5,2.4v2.5H6.9V2.4H7.5z"/>
	<path class="st0" d="M7.8,2.6c0-0.2,0.1-0.2,0.3-0.2c0.2,0,0.3,0.1,0.3,0.2S8.2,2.9,8.1,2.9S7.8,2.8,7.8,2.6z M8.4,3.1v1.8H7.8V3.1
		C7.8,3.1,8.4,3.1,8.4,3.1z"/>
	<path class="st0" d="M9.5,3.4c-0.2,0-0.3,0.1-0.3,0.2H8.6c0-0.3,0.3-0.6,0.9-0.6c0.5,0,0.8,0.2,0.8,0.8v0.8c0,0.1,0,0.1,0.1,0.1
		v0.1C10.3,5,10.1,5,10,5C9.8,5,9.7,4.9,9.7,4.7l0,0C9.6,4.9,9.4,5,9.1,5C8.8,5,8.6,4.8,8.6,4.5c0-0.4,0.3-0.5,0.7-0.6
		c0.2,0,0.5-0.1,0.5-0.2C9.7,3.5,9.6,3.4,9.5,3.4L9.5,3.4z M9.7,4.3V4c-0.1,0-0.2,0.1-0.3,0.1C9.2,4.2,9.1,4.3,9.1,4.4
		c0,0.2,0.1,0.2,0.2,0.2C9.6,4.6,9.7,4.4,9.7,4.3L9.7,4.3z"/>
	<path class="st0" d="M12.5,4c0,0.6-0.3,1-0.8,1c-0.3,0-0.4-0.1-0.5-0.2l0,0v0.2h-0.6V2.4h0.6v0.9l0,0C11.2,3.2,11.4,3,11.7,3
		C12.2,3,12.5,3.4,12.5,4L12.5,4z M11.9,4c0-0.3-0.1-0.5-0.4-0.5S11.2,3.7,11.2,4c0,0.4,0.1,0.5,0.4,0.5S11.9,4.4,11.9,4z"/>
	<path class="st0" d="M13.2,2.4v2.5h-0.6V2.4H13.2z"/>
	<path class="st0" d="M14.7,4.4h0.6C15.2,4.7,14.9,5,14.4,5c-0.6,0-1-0.4-1-1s0.4-1,0.9-1c0.6,0,0.9,0.5,0.9,1.1H14
		c0,0.2,0.2,0.4,0.4,0.4S14.7,4.5,14.7,4.4L14.7,4.4z M14,3.8h0.7c0-0.2-0.1-0.4-0.4-0.4S14,3.6,14,3.8z"/>
	<path class="st0" d="M16.1,2.4h1.1c0.7,0,1.1,0.5,1.1,1.3S18,4.9,17.3,4.9h-1.2V2.4z M16.8,4.4h0.4c0.4,0,0.6-0.3,0.6-0.7
		s-0.2-0.8-0.6-0.8h-0.4V4.4z"/>
	<path class="st0" d="M19.8,4.4h0.6C20.3,4.7,20,5,19.5,5c-0.6,0-1-0.4-1-1s0.4-1,0.9-1c0.6,0,0.9,0.5,0.9,1.1h-1.3
		c0,0.2,0.2,0.4,0.4,0.4S19.8,4.5,19.8,4.4L19.8,4.4z M19.1,3.8h0.7c0-0.2-0.1-0.4-0.4-0.4S19.1,3.6,19.1,3.8z"/>
	<path class="st0" d="M22.5,4c0,0.6-0.3,1-0.8,1c-0.3,0-0.5-0.1-0.5-0.2l0,0v0.2h-0.6V2.4h0.6v0.9l0,0C21.2,3.2,21.4,3,21.7,3
		C22.2,3,22.5,3.4,22.5,4L22.5,4z M21.9,4c0-0.3-0.1-0.5-0.4-0.5S21.2,3.7,21.2,4c0,0.4,0.1,0.5,0.4,0.5S21.9,4.4,21.9,4z"/>
	<path class="st0" d="M23.3,3.5v0.7c0,0.2,0.1,0.2,0.3,0.2v0.4c-0.1,0-0.2,0-0.4,0c-0.4,0-0.5-0.2-0.5-0.6V3.5h-0.2V3.1h0.2V2.6h0.6
		v0.5h0.3v0.4H23.3L23.3,3.5z"/>
	<path class="st0" d="M25.6,2.9c-0.4,0-0.6,0.3-0.6,0.8s0.1,0.8,0.6,0.8c0.3,0,0.5-0.2,0.5-0.5h0.6c-0.1,0.6-0.4,1-1.1,1
		c-0.8,0-1.2-0.6-1.2-1.3s0.4-1.3,1.2-1.3c0.7,0,1.1,0.4,1.1,1h-0.6C26.1,3.1,25.9,2.9,25.6,2.9L25.6,2.9z"/>
	<path class="st0" d="M27.9,5c-0.6,0-1-0.4-1-1s0.4-1,1-1s1,0.4,1,1S28.5,5,27.9,5z M27.9,4.6c0.2,0,0.4-0.2,0.4-0.5
		s-0.1-0.5-0.4-0.5S27.5,3.7,27.5,4S27.6,4.6,27.9,4.6z"/>
	<path class="st0" d="M30.8,3.7v1.2h-0.6v-1c0-0.3-0.1-0.4-0.3-0.4c-0.2,0-0.3,0.1-0.3,0.4v1H29V3.1h0.6v0.3l0,0
		c0.1-0.2,0.3-0.3,0.6-0.3C30.5,3.1,30.8,3.3,30.8,3.7L30.8,3.7z"/>
	<path class="st0" d="M32.6,4.4c0,0.4-0.3,0.6-0.8,0.6c-0.6,0-0.9-0.3-0.9-0.7h0.5c0,0.2,0.1,0.3,0.4,0.3c0.2,0,0.2-0.1,0.2-0.2
		c0-0.2-0.2-0.2-0.5-0.2C31.3,4.1,31,4,31,3.6C31,3.3,31.2,3,31.8,3c0.6,0,0.8,0.3,0.8,0.6h-0.5c0-0.2-0.1-0.2-0.3-0.2
		c-0.2,0-0.2,0.1-0.2,0.2c0,0.1,0.1,0.1,0.4,0.2C32.3,3.9,32.6,4,32.6,4.4z"/>
	<path class="st0" d="M33.7,5c-0.6,0-1-0.4-1-1s0.4-1,1-1s1,0.4,1,1S34.3,5,33.7,5z M33.7,4.6c0.2,0,0.4-0.2,0.4-0.5
		S34,3.5,33.7,3.5S33.3,3.7,33.3,4S33.5,4.6,33.7,4.6z"/>
	<path class="st0" d="M35.5,2.4v2.5h-0.6V2.4H35.5z"/>
	<path class="st0" d="M35.7,2.6c0-0.2,0.1-0.2,0.3-0.2s0.3,0.1,0.3,0.2S36.2,2.9,36,2.9S35.7,2.8,35.7,2.6z M36.3,3.1v1.8h-0.6V3.1
		C35.7,3.1,36.3,3.1,36.3,3.1z"/>
	<path class="st0" d="M38.4,2.4v2.5h-0.6V4.7l0,0C37.7,4.8,37.5,5,37.3,5c-0.5,0-0.8-0.4-0.8-1s0.3-1,0.8-1c0.3,0,0.5,0.1,0.5,0.2
		l0,0V2.4L38.4,2.4L38.4,2.4z M37.8,4c0-0.3-0.1-0.5-0.4-0.5S37,3.6,37,4s0.1,0.5,0.4,0.5S37.8,4.4,37.8,4z"/>
	<path class="st0" d="M39.5,3.4c-0.2,0-0.3,0.1-0.3,0.2h-0.5c0-0.3,0.3-0.6,0.9-0.6c0.5,0,0.8,0.2,0.8,0.8v0.8c0,0.1,0,0.1,0.1,0.1
		v0.1C40.3,5,40.2,5,40.1,5c-0.2,0-0.3-0.1-0.3-0.2l0,0C39.6,4.9,39.4,5,39.2,5c-0.4,0-0.6-0.2-0.6-0.5c0-0.4,0.3-0.5,0.7-0.6
		c0.2,0,0.5-0.1,0.5-0.2C39.7,3.5,39.6,3.4,39.5,3.4L39.5,3.4z M39.7,4.3V4c-0.1,0-0.2,0.1-0.3,0.1c-0.2,0.1-0.3,0.1-0.3,0.2
		c0,0.2,0.1,0.2,0.2,0.2C39.6,4.6,39.7,4.4,39.7,4.3L39.7,4.3z"/>
	<path class="st0" d="M41.3,3.5v0.7c0,0.2,0.1,0.2,0.3,0.2v0.4c-0.1,0-0.2,0-0.3,0c-0.4,0-0.5-0.2-0.5-0.6V3.5h-0.2V3.1h0.2V2.6h0.6
		v0.5h0.3v0.4H41.3L41.3,3.5z"/>
	<path class="st0" d="M41.8,2.6c0-0.2,0.1-0.2,0.3-0.2s0.3,0.1,0.3,0.2s-0.1,0.2-0.3,0.2S41.8,2.8,41.8,2.6z M42.4,3.1v1.8h-0.6V3.1
		C41.8,3.1,42.4,3.1,42.4,3.1z"/>
	<path class="st0" d="M43.5,5c-0.6,0-1-0.4-1-1s0.4-1,1-1s1,0.4,1,1S44.2,5,43.5,5z M43.5,4.6c0.2,0,0.4-0.2,0.4-0.5
		s-0.2-0.5-0.4-0.5S43.1,3.7,43.1,4S43.3,4.6,43.5,4.6z"/>
	<path class="st0" d="M46.5,3.7v1.2h-0.6v-1c0-0.3-0.1-0.4-0.3-0.4c-0.2,0-0.3,0.1-0.3,0.4v1h-0.6V3.1h0.6v0.3l0,0
		c0.1-0.2,0.3-0.3,0.6-0.3C46.2,3.1,46.5,3.3,46.5,3.7L46.5,3.7z"/>
</g>
</svg>
