<?xml version="1.0" encoding="UTF-8"?><svg id="Ebene_2" xmlns="http://www.w3.org/2000/svg" viewBox="0 0 46.5 4.46"><defs><style>.cls-1{isolation:isolate;}.cls-2{fill:#fff;stroke-width:0px;}</style></defs><path class="cls-2" d="m1.83.01c.5,0,1-.1,1.5.3,1,.7.6,2.3-.7,2.5-.4-.1-.4.1-.1.3.2.2.5.3.8.4.2,0,.4.1.5.2.1.4-.2.7-.6.7-.6-.2-1.3-.5-1.6-1.1,0-.1-.1-.2-.1-.2,0,0-.1,0-.1.2,0,.4.1.8-.2,1.1-.2,0-.4-.1-.5-.2-.1-.2-.1-.4-.1-.6v-.8c0-.1-.1-.2-.2-.2-.3-.2-.5-.5-.4-.8C.03,1.41.23,1.11.63,1.01c.3-.1.7-.1,1,.1.2.1.4.3.4.6,0,.1.1.2.2.2.5.1,1-.3.8-.8-.2-.4-.7-.4-1-.4h-1c-.2,0-.3-.1-.4-.2-.2-.1-.1-.3.1-.4C.83.01.93.01,1.13.01h.7Zm-.9,1.7c-.1,0-.1.1-.1.2.1,0,.5.1.4-.1,0-.1-.2-.1-.3-.1h0Z"/><g class="cls-1"><g class="cls-1"><path class="cls-2" d="m5.54,3.84h.57c-.1.37-.39.62-.89.62-.61,0-.98-.4-.98-.98s.36-.98.95-.98c.63,0,.95.46.95,1.13h-1.33c0,.26.19.4.4.4s.29-.09.33-.18Zm-.72-.56h.75c0-.26-.15-.38-.37-.38s-.37.13-.37.38Z"/></g><g class="cls-1"><path class="cls-2" d="m6.93,1.83v2.58h-.58V1.83h.58Z"/></g><g class="cls-1"><path class="cls-2" d="m7.19,2.08c0-.17.13-.26.29-.26s.29.09.29.26-.13.26-.29.26-.29-.09-.29-.26Zm.58.48v1.84h-.58v-1.84h.58Z"/><path class="cls-2" d="m8.9,2.9c-.21,0-.31.08-.33.25h-.54c.02-.35.27-.65.87-.65.52,0,.81.2.81.78v.85c0,.1.04.14.11.14v.14c-.12.04-.22.06-.33.06-.26,0-.33-.12-.33-.25h0c-.12.14-.33.25-.58.25-.39,0-.6-.22-.6-.53,0-.37.27-.54.7-.62.24-.05.47-.08.47-.24,0-.11-.08-.17-.23-.17Zm.23.83v-.22c-.07.03-.16.05-.3.08-.23.05-.3.14-.3.26,0,.15.09.22.23.22.25,0,.37-.16.37-.33Z"/><path class="cls-2" d="m11.95,3.48c0,.61-.31.98-.8.98-.27,0-.46-.14-.53-.24h0v.18h-.58V1.83h.58v.92h0c.07-.1.27-.24.53-.24.49,0,.8.37.8.98Zm-.58,0c0-.36-.14-.55-.38-.55s-.38.19-.38.55.14.55.38.55.38-.19.38-.55Z"/><path class="cls-2" d="m12.73,1.83v2.58h-.58V1.83h.58Z"/><path class="cls-2" d="m14.23,3.84h.57c-.1.37-.39.62-.89.62-.61,0-.98-.4-.98-.98s.36-.98.95-.98c.63,0,.95.46.95,1.13h-1.33c0,.26.19.4.4.4s.29-.09.33-.18Zm-.72-.56h.75c0-.26-.15-.38-.37-.38s-.37.13-.37.38Z"/><path class="cls-2" d="m15.68,1.83h1.14c.72,0,1.15.46,1.15,1.29s-.4,1.29-1.11,1.29h-1.18V1.83Zm.65,2.05h.43c.4,0,.57-.29.57-.76s-.16-.76-.57-.76h-.43v1.52Z"/><path class="cls-2" d="m19.4,3.84h.57c-.1.37-.39.62-.89.62-.61,0-.98-.4-.98-.98s.36-.98.95-.98c.63,0,.95.46.95,1.13h-1.33c0,.26.19.4.4.4s.29-.09.33-.18Zm-.72-.56h.75c0-.26-.15-.38-.37-.38s-.37.13-.37.38Z"/></g><g class="cls-1"><path class="cls-2" d="m22.12,3.48c0,.61-.31.98-.8.98-.27,0-.46-.14-.53-.24h0v.18h-.58V1.83h.58v.92h0c.07-.1.27-.24.53-.24.49,0,.8.37.8.98Zm-.58,0c0-.36-.14-.55-.38-.55s-.38.19-.38.55.14.55.38.55.38-.19.38-.55Z"/></g><g class="cls-1"><path class="cls-2" d="m23,2.99v.76c0,.21.08.21.32.21v.43c-.1.02-.19.04-.36.04-.42,0-.54-.22-.54-.64v-.81h-.26v-.43h.26v-.51h.58v.51h.32v.43h-.32Z"/></g><g class="cls-1"><path class="cls-2" d="m25.29,2.3c-.43,0-.57.33-.57.81s.14.82.57.82c.35,0,.48-.21.52-.49h.65c-.06.6-.43,1.02-1.14,1.02-.81,0-1.25-.57-1.25-1.35s.44-1.34,1.25-1.34c.7,0,1.08.42,1.14,1.02h-.65c-.05-.28-.18-.49-.52-.49Z"/></g><g class="cls-1"><path class="cls-2" d="m27.58,4.46c-.62,0-.99-.41-.99-.98s.37-.98.99-.98.98.41.98.98-.37.98-.98.98Zm0-.43c.25,0,.41-.19.41-.55s-.16-.55-.41-.55-.41.19-.41.55.15.55.41.55Z"/><path class="cls-2" d="m30.55,3.15v1.25h-.58v-1.06c0-.28-.1-.37-.29-.37-.22,0-.35.11-.35.37v1.07h-.58v-1.84h.58v.27h0c.1-.17.28-.32.61-.32.36,0,.6.23.6.66Z"/></g><g class="cls-1"><path class="cls-2" d="m32.44,3.86c0,.39-.29.6-.81.6-.66,0-.91-.29-.93-.67h.54c.02.18.14.27.37.27.16,0,.25-.05.25-.16,0-.16-.17-.18-.46-.25-.31-.07-.66-.18-.66-.57,0-.33.29-.59.81-.59.59,0,.82.3.84.62h-.54c-.02-.15-.1-.23-.29-.23-.16,0-.24.06-.24.15,0,.13.12.13.4.19.36.08.72.2.72.62Z"/></g><g class="cls-1"><path class="cls-2" d="m33.55,4.46c-.62,0-.99-.41-.99-.98s.37-.98.99-.98.98.41.98.98-.37.98-.98.98Zm0-.43c.25,0,.41-.19.41-.55s-.15-.55-.41-.55-.41.19-.41.55.16.55.41.55Z"/></g><g class="cls-1"><path class="cls-2" d="m35.32,1.83v2.58h-.58V1.83h.58Z"/></g><g class="cls-1"><path class="cls-2" d="m35.58,2.08c0-.17.13-.26.29-.26s.29.09.29.26-.13.26-.29.26-.29-.09-.29-.26Zm.58.48v1.84h-.58v-1.84h.58Z"/><path class="cls-2" d="m38.27,1.83v2.58h-.58v-.18h0c-.07.1-.27.24-.53.24-.49,0-.8-.37-.8-.98s.31-.98.8-.98c.27,0,.46.14.53.24h0v-.92h.58Zm-.59,1.65c0-.36-.14-.55-.38-.55s-.38.19-.38.55.14.55.38.55.38-.19.38-.55Z"/></g><g class="cls-1"><path class="cls-2" d="m39.41,2.9c-.21,0-.31.08-.33.25h-.54c.02-.35.27-.65.87-.65.52,0,.81.2.81.78v.85c0,.1.04.14.11.14v.14c-.12.04-.22.06-.33.06-.26,0-.33-.12-.33-.25h0c-.12.14-.33.25-.58.25-.39,0-.6-.22-.6-.53,0-.37.27-.54.7-.62.24-.05.47-.08.47-.24,0-.11-.08-.17-.23-.17Zm.23.83v-.22c-.07.03-.16.05-.3.08-.23.05-.3.14-.3.26,0,.15.09.22.23.22.25,0,.37-.16.37-.33Z"/></g><g class="cls-1"><path class="cls-2" d="m41.24,2.99v.76c0,.21.08.21.32.21v.43c-.1.02-.19.04-.36.04-.42,0-.54-.22-.54-.64v-.81h-.26v-.43h.26v-.51h.58v.51h.32v.43h-.32Z"/><path class="cls-2" d="m41.77,2.08c0-.17.13-.26.29-.26s.29.09.29.26-.13.26-.29.26-.29-.09-.29-.26Zm.58.48v1.84h-.58v-1.84h.58Z"/><path class="cls-2" d="m43.53,4.46c-.62,0-.99-.41-.99-.98s.37-.98.99-.98.98.41.98.98-.37.98-.98.98Zm0-.43c.25,0,.41-.19.41-.55s-.16-.55-.41-.55-.41.19-.41.55.15.55.41.55Z"/><path class="cls-2" d="m46.5,3.15v1.25h-.58v-1.06c0-.28-.1-.37-.29-.37-.22,0-.35.11-.35.37v1.07h-.58v-1.84h.58v.27h0c.1-.17.28-.32.61-.32.36,0,.6.23.6.66Z"/></g></g></svg>