<?xml version="1.0" encoding="utf-8"?>
<!-- Generator: Adobe Illustrator 28.0.0, SVG Export Plug-In . SVG Version: 6.00 Build 0)  -->
<svg version="1.1" id="Ebene_2_00000039843051833501116860000011558478868333582235_"
	 xmlns="http://www.w3.org/2000/svg" xmlns:xlink="http://www.w3.org/1999/xlink" x="0px" y="0px" viewBox="0 0 45.7 4.4"
	 style="enable-background:new 0 0 45.7 4.4;" xml:space="preserve">
<style type="text/css">
	.st0{fill:#FFFFFF;}
</style>
<g>
	<path class="st0" d="M1.8,0c0.5,0,1-0.1,1.5,0.3c1,0.7,0.6,2.3-0.7,2.5C2.2,2.7,2.2,2.9,2.5,3.1C2.7,3.3,3,3.4,3.3,3.5
		c0.2,0,0.4,0.1,0.5,0.2c0.1,0.4-0.2,0.7-0.6,0.7C2.6,4.2,1.9,3.9,1.6,3.3c0-0.1-0.1-0.2-0.1-0.2s-0.1,0-0.1,0.2
		c0,0.4,0.1,0.8-0.2,1.1C1,4.4,0.8,4.3,0.7,4.2C0.6,4,0.6,3.8,0.6,3.6c0-0.3,0-0.6,0-0.8c0-0.1-0.1-0.2-0.2-0.2
		C0.1,2.4-0.1,2.1,0,1.8C0,1.4,0.2,1.1,0.6,1c0.3-0.1,0.7-0.1,1,0.1C1.8,1.2,2,1.4,2,1.7c0,0.1,0.1,0.2,0.2,0.2C2.7,2,3.2,1.6,3,1.1
		C2.8,0.7,2.3,0.7,2,0.7s-0.7,0-1,0c-0.2,0-0.3-0.1-0.4-0.2C0.4,0.4,0.5,0.2,0.7,0.1C0.8,0,0.9,0,1.1,0C1.3,0,1.5,0,1.8,0L1.8,0
		L1.8,0z M0.9,1.7c-0.1,0-0.1,0.1-0.1,0.2c0.1,0,0.5,0.1,0.4-0.1C1.2,1.7,1,1.7,0.9,1.7L0.9,1.7z"/>
	<g>
		<path class="st0" d="M5.4,3.8h0.6C5.8,4.2,5.6,4.4,5.1,4.4c-0.6,0-1-0.4-1-1c0-0.6,0.4-1,0.9-1C5.7,2.5,6,3,6,3.6H4.7
			C4.7,3.9,4.9,4,5.1,4C5.3,4,5.3,3.9,5.4,3.8z M4.7,3.3h0.7C5.4,3,5.3,2.9,5,2.9C4.8,2.9,4.7,3,4.7,3.3z"/>
		<path class="st0" d="M6.7,1.8v2.5H6.2V1.8H6.7z"/>
		<path class="st0" d="M7,2.1c0-0.2,0.1-0.3,0.3-0.3c0.2,0,0.3,0.1,0.3,0.3c0,0.2-0.1,0.3-0.3,0.3C7.1,2.4,7,2.3,7,2.1z M7.6,2.6
			v1.8H7V2.6H7.6z"/>
		<path class="st0" d="M8.7,2.9C8.5,2.9,8.4,3,8.4,3.2H7.8c0-0.3,0.3-0.6,0.9-0.6c0.5,0,0.8,0.2,0.8,0.8v0.8c0,0.1,0,0.1,0.1,0.1
			v0.1c-0.1,0-0.2,0.1-0.3,0.1C9,4.4,8.9,4.3,8.9,4.2h0C8.8,4.3,8.6,4.4,8.4,4.4C8,4.4,7.8,4.2,7.8,3.9c0-0.4,0.3-0.5,0.7-0.6
			c0.2,0,0.5-0.1,0.5-0.2C8.9,3,8.8,2.9,8.7,2.9z M8.9,3.7V3.5c-0.1,0-0.2,0.1-0.3,0.1c-0.2,0-0.3,0.1-0.3,0.3C8.3,4,8.4,4,8.6,4
			C8.8,4,8.9,3.9,8.9,3.7z"/>
		<path class="st0" d="M11.7,3.5c0,0.6-0.3,1-0.8,1c-0.3,0-0.5-0.1-0.5-0.2h0v0.2H9.8V1.8h0.6v0.9h0c0.1-0.1,0.3-0.2,0.5-0.2
			C11.4,2.5,11.7,2.9,11.7,3.5z M11.1,3.5c0-0.4-0.1-0.5-0.4-0.5c-0.2,0-0.4,0.2-0.4,0.5S10.5,4,10.8,4C11,4,11.1,3.8,11.1,3.5z"/>
		<path class="st0" d="M12.5,1.8v2.5h-0.6V1.8H12.5z"/>
		<path class="st0" d="M13.9,3.8h0.6c-0.1,0.4-0.4,0.6-0.9,0.6c-0.6,0-1-0.4-1-1c0-0.6,0.4-1,0.9-1c0.6,0,0.9,0.5,0.9,1.1h-1.3
			c0,0.3,0.2,0.4,0.4,0.4C13.8,4,13.9,3.9,13.9,3.8z M13.2,3.3H14c0-0.3-0.2-0.4-0.4-0.4C13.4,2.9,13.2,3,13.2,3.3z"/>
		<path class="st0" d="M15.4,1.8h1.1c0.7,0,1.1,0.5,1.1,1.3c0,0.8-0.4,1.3-1.1,1.3h-1.2V1.8z M16,3.9h0.4c0.4,0,0.6-0.3,0.6-0.7
			c0-0.5-0.2-0.7-0.6-0.7H16V3.9z"/>
		<path class="st0" d="M19,3.8h0.6c-0.1,0.4-0.4,0.6-0.9,0.6c-0.6,0-1-0.4-1-1c0-0.6,0.4-1,0.9-1c0.6,0,0.9,0.5,0.9,1.1h-1.3
			c0,0.3,0.2,0.4,0.4,0.4C18.9,4,19,3.9,19,3.8z M18.3,3.3H19c0-0.3-0.2-0.4-0.4-0.4S18.3,3,18.3,3.3z"/>
		<path class="st0" d="M21.7,3.5c0,0.6-0.3,1-0.8,1c-0.3,0-0.5-0.1-0.5-0.2h0v0.2h-0.6V1.8h0.6v0.9h0c0.1-0.1,0.3-0.2,0.5-0.2
			C21.4,2.5,21.7,2.9,21.7,3.5z M21.1,3.5c0-0.4-0.1-0.5-0.4-0.5c-0.2,0-0.4,0.2-0.4,0.5S20.5,4,20.7,4C21,4,21.1,3.8,21.1,3.5z"/>
		<path class="st0" d="M22.5,3v0.8c0,0.2,0.1,0.2,0.3,0.2v0.4c-0.1,0-0.2,0-0.4,0c-0.4,0-0.5-0.2-0.5-0.6V3h-0.3V2.6H22V2.1h0.6v0.5
			h0.3V3H22.5z"/>
		<path class="st0" d="M24.8,2.3c-0.4,0-0.6,0.3-0.6,0.8c0,0.5,0.1,0.8,0.6,0.8c0.3,0,0.5-0.2,0.5-0.5H26c-0.1,0.6-0.4,1-1.1,1
			c-0.8,0-1.2-0.6-1.2-1.3c0-0.8,0.4-1.3,1.2-1.3c0.7,0,1.1,0.4,1.1,1h-0.6C25.3,2.5,25.1,2.3,24.8,2.3z"/>
		<path class="st0" d="M27.1,4.4c-0.6,0-1-0.4-1-1s0.4-1,1-1c0.6,0,1,0.4,1,1S27.7,4.4,27.1,4.4z M27.1,4c0.2,0,0.4-0.2,0.4-0.5
			s-0.2-0.5-0.4-0.5c-0.3,0-0.4,0.2-0.4,0.5S26.8,4,27.1,4z"/>
		<path class="st0" d="M30,3.2v1.2h-0.6v-1c0-0.3-0.1-0.4-0.3-0.4c-0.2,0-0.3,0.1-0.3,0.4v1h-0.6V2.6h0.6v0.3h0
			c0.1-0.2,0.3-0.3,0.6-0.3C29.8,2.5,30,2.7,30,3.2z"/>
		<path class="st0" d="M31.8,3.8c0,0.4-0.3,0.6-0.8,0.6c-0.6,0-0.9-0.3-0.9-0.7h0.5C30.7,4,30.8,4,31,4c0.2,0,0.2-0.1,0.2-0.2
			c0-0.2-0.2-0.2-0.5-0.2c-0.3-0.1-0.6-0.2-0.6-0.6c0-0.3,0.3-0.6,0.8-0.6c0.6,0,0.8,0.3,0.8,0.6h-0.5c0-0.1-0.1-0.2-0.3-0.2
			c-0.2,0-0.2,0.1-0.2,0.1c0,0.1,0.1,0.1,0.4,0.2C31.5,3.3,31.8,3.4,31.8,3.8z"/>
		<path class="st0" d="M32.9,4.4c-0.6,0-1-0.4-1-1s0.4-1,1-1c0.6,0,1,0.4,1,1S33.5,4.4,32.9,4.4z M32.9,4c0.2,0,0.4-0.2,0.4-0.5
			s-0.2-0.5-0.4-0.5c-0.3,0-0.4,0.2-0.4,0.5S32.7,4,32.9,4z"/>
		<path class="st0" d="M34.7,1.8v2.5h-0.6V1.8H34.7z"/>
		<path class="st0" d="M34.9,2.1c0-0.2,0.1-0.3,0.3-0.3c0.2,0,0.3,0.1,0.3,0.3c0,0.2-0.1,0.3-0.3,0.3C35.1,2.4,34.9,2.3,34.9,2.1z
			 M35.5,2.6v1.8h-0.6V2.6H35.5z"/>
		<path class="st0" d="M37.6,1.8v2.5H37V4.2h0c-0.1,0.1-0.3,0.2-0.5,0.2c-0.5,0-0.8-0.4-0.8-1s0.3-1,0.8-1c0.3,0,0.5,0.1,0.5,0.2h0
			V1.8H37.6z M37,3.5c0-0.4-0.1-0.5-0.4-0.5s-0.4,0.2-0.4,0.5S36.4,4,36.6,4S37,3.8,37,3.5z"/>
		<path class="st0" d="M38.7,2.9c-0.2,0-0.3,0.1-0.3,0.3h-0.5c0-0.3,0.3-0.6,0.9-0.6c0.5,0,0.8,0.2,0.8,0.8v0.8c0,0.1,0,0.1,0.1,0.1
			v0.1c-0.1,0-0.2,0.1-0.3,0.1c-0.3,0-0.3-0.1-0.3-0.2h0c-0.1,0.1-0.3,0.2-0.6,0.2c-0.4,0-0.6-0.2-0.6-0.5c0-0.4,0.3-0.5,0.7-0.6
			c0.2,0,0.5-0.1,0.5-0.2C38.9,3,38.9,2.9,38.7,2.9z M38.9,3.7V3.5c-0.1,0-0.2,0.1-0.3,0.1c-0.2,0-0.3,0.1-0.3,0.3
			C38.3,4,38.4,4,38.6,4C38.8,4,38.9,3.9,38.9,3.7z"/>
		<path class="st0" d="M40.5,3v0.8c0,0.2,0.1,0.2,0.3,0.2v0.4c-0.1,0-0.2,0-0.4,0c-0.4,0-0.5-0.2-0.5-0.6V3h-0.3V2.6h0.3V2.1h0.6
			v0.5h0.3V3H40.5z"/>
		<path class="st0" d="M41,2.1c0-0.2,0.1-0.3,0.3-0.3c0.2,0,0.3,0.1,0.3,0.3c0,0.2-0.1,0.3-0.3,0.3C41.2,2.4,41,2.3,41,2.1z
			 M41.6,2.6v1.8H41V2.6H41.6z"/>
		<path class="st0" d="M42.8,4.4c-0.6,0-1-0.4-1-1s0.4-1,1-1c0.6,0,1,0.4,1,1S43.4,4.4,42.8,4.4z M42.8,4c0.2,0,0.4-0.2,0.4-0.5
			S43,2.9,42.8,2.9c-0.3,0-0.4,0.2-0.4,0.5S42.5,4,42.8,4z"/>
		<path class="st0" d="M45.7,3.2v1.2h-0.6v-1C45.1,3.1,45,3,44.8,3c-0.2,0-0.3,0.1-0.3,0.4v1h-0.6V2.6h0.6v0.3h0
			c0.1-0.2,0.3-0.3,0.6-0.3C45.4,2.5,45.7,2.7,45.7,3.2z"/>
	</g>
</g>
</svg>
