<?xml version="1.0" encoding="utf-8"?>
<!-- Generator: Adobe Illustrator 28.0.0, SVG Export Plug-In . SVG Version: 6.00 Build 0)  -->
<svg version="1.1" xmlns="http://www.w3.org/2000/svg" xmlns:xlink="http://www.w3.org/1999/xlink" x="0px" y="0px"
	 viewBox="0 0 350.8 301.9" style="enable-background:new 0 0 350.8 301.9;" xml:space="preserve">
<style type="text/css">
	.st0{fill:#FFFFFF;}
</style>
<g id="Ebene_1">
	<rect width="180.7" height="301.9"/>
</g>
<g id="Ebene_2">
	<g>
		<g>
			<g>
				<path class="st0" d="M218.5,64.3c-0.9,0-1.8,0-2.7,0c-0.1,0-0.2-0.1-0.2-0.2c0-1.8,0-3.6,0-5.4c0-0.1,0.1-0.2,0.2-0.2
					c1.8,0,3.7-0.1,5.5,0c0,0,0,0.1,0,0.1c0,1.8,0,3.6,0,5.4c0,0.1-0.1,0.2-0.2,0.2C220.3,64.3,219.4,64.3,218.5,64.3L218.5,64.3z
					 M218.2,59.3c-0.4,0-1.2-0.2-1.2,0.4c0,0.2,0.3,0.4,0.5,0.4c0.4,0,0.7,0,1.1,0c0.2,0,0.5,0,0.7,0.2c0.5,0.4,0,1-0.5,1
					c-0.2,0-0.3-0.2-0.3-0.3c-0.1-0.6-0.9-0.8-1.4-0.6c-0.5,0.2-0.8,0.8-0.5,1.3c0.1,0.3,0.5,0.4,0.5,0.8c0,0.4-0.1,0.8,0.1,1.2
					c0.1,0.2,0.4,0.3,0.6,0.1c0.2-0.3,0.1-0.7,0.1-1c0-0.2,0-0.2,0.1-0.1c0.4,0.7,1.1,1.1,1.8,1.2c0.3,0,0.7-0.3,0.5-0.6
					c-0.1-0.2-0.3-0.2-0.5-0.2c-0.3,0-0.5-0.2-0.7-0.3c-0.2-0.2-0.4-0.4,0-0.4c1.3-0.1,1.8-1.8,0.7-2.5
					C219.2,59.2,218.7,59.3,218.2,59.3L218.2,59.3z"/>
				<path d="M218.2,59.3c0.5,0,1.1-0.1,1.5,0.3c1,0.7,0.6,2.3-0.6,2.5c-0.4,0-0.4,0.1-0.1,0.4c0.2,0.2,0.5,0.4,0.8,0.4
					c0.2,0,0.4,0.1,0.5,0.2c0.2,0.3-0.2,0.7-0.5,0.6c-0.6-0.2-1.3-0.5-1.7-1.1c0-0.1-0.1-0.2-0.1-0.2c0,0-0.1,0.1-0.1,0.2
					c0,0.4,0.1,0.8-0.2,1.1c-0.1,0.1-0.3,0-0.4-0.1c-0.1-0.2-0.2-0.4-0.1-0.6c0-0.3,0-0.6,0-0.8c0-0.1-0.1-0.2-0.2-0.2
					c-0.2-0.2-0.4-0.5-0.4-0.8c0-0.3,0.3-0.7,0.6-0.8c0.3-0.1,0.7-0.1,1,0.1c0.2,0.1,0.3,0.4,0.4,0.6c0,0.1,0.1,0.2,0.2,0.2
					c0.5,0.1,1-0.3,0.8-0.8c-0.2-0.4-0.7-0.4-1-0.3c-0.3,0-0.7,0-1,0c-0.2,0-0.3-0.1-0.4-0.2c-0.1-0.2,0-0.4,0.1-0.5
					c0.1-0.1,0.2-0.1,0.4-0.1C217.7,59.3,218,59.3,218.2,59.3L218.2,59.3z M217.4,61c-0.1,0-0.1,0.1-0.1,0.1
					c0.1,0.1,0.4,0.1,0.4-0.1C217.6,61,217.5,61,217.4,61L217.4,61z"/>
				<path class="st0" d="M217.4,61c0.1,0,0.2,0,0.2,0c0.1,0,0.1,0.1,0,0.2c0,0-0.1,0-0.2,0C217.3,61.2,217.2,61.1,217.4,61L217.4,61
					z"/>
			</g>
		</g>
		<g>
			<path d="M221.8,62.9h0.6c-0.1,0.4-0.4,0.6-0.9,0.6c-0.6,0-1-0.4-1-1c0-0.6,0.4-1,0.9-1c0.6,0,0.9,0.5,0.9,1.1h-1.3
				c0,0.3,0.2,0.4,0.4,0.4C221.7,63.1,221.8,63,221.8,62.9z M221.1,62.3h0.7c0-0.3-0.2-0.4-0.4-0.4
				C221.2,61.9,221.1,62.1,221.1,62.3z"/>
			<path d="M223.2,60.9v2.5h-0.6v-2.5H223.2z"/>
			<path d="M223.4,61.1c0-0.2,0.1-0.3,0.3-0.3c0.2,0,0.3,0.1,0.3,0.3c0,0.2-0.1,0.3-0.3,0.3C223.6,61.4,223.4,61.3,223.4,61.1z
				 M224,61.6v1.8h-0.6v-1.8H224z"/>
			<path d="M225.1,61.9c-0.2,0-0.3,0.1-0.3,0.3h-0.5c0-0.3,0.3-0.6,0.9-0.6c0.5,0,0.8,0.2,0.8,0.8v0.8c0,0.1,0,0.1,0.1,0.1v0.1
				c-0.1,0-0.2,0.1-0.3,0.1c-0.3,0-0.3-0.1-0.3-0.2h0c-0.1,0.1-0.3,0.2-0.6,0.2c-0.4,0-0.6-0.2-0.6-0.5c0-0.4,0.3-0.5,0.7-0.6
				c0.2,0,0.5-0.1,0.5-0.2C225.3,62,225.3,61.9,225.1,61.9z M225.3,62.8v-0.2c-0.1,0-0.2,0.1-0.3,0.1c-0.2,0-0.3,0.1-0.3,0.3
				c0,0.1,0.1,0.2,0.2,0.2C225.2,63.1,225.3,62.9,225.3,62.8z"/>
			<path d="M228.1,62.5c0,0.6-0.3,1-0.8,1c-0.3,0-0.5-0.1-0.5-0.2h0v0.2h-0.6v-2.5h0.6v0.9h0c0.1-0.1,0.3-0.2,0.5-0.2
				C227.8,61.6,228.1,61.9,228.1,62.5z M227.6,62.5c0-0.4-0.1-0.5-0.4-0.5c-0.2,0-0.4,0.2-0.4,0.5s0.1,0.5,0.4,0.5
				C227.4,63.1,227.6,62.9,227.6,62.5z"/>
			<path d="M228.9,60.9v2.5h-0.6v-2.5H228.9z"/>
			<path d="M230.4,62.9h0.6c-0.1,0.4-0.4,0.6-0.9,0.6c-0.6,0-1-0.4-1-1c0-0.6,0.4-1,0.9-1c0.6,0,0.9,0.5,0.9,1.1h-1.3
				c0,0.3,0.2,0.4,0.4,0.4C230.2,63.1,230.3,63,230.4,62.9z M229.6,62.3h0.7c0-0.3-0.2-0.4-0.4-0.4
				C229.8,61.9,229.6,62.1,229.6,62.3z"/>
			<path d="M231.8,60.9h1.1c0.7,0,1.1,0.5,1.1,1.3c0,0.8-0.4,1.3-1.1,1.3h-1.2V60.9z M232.4,62.9h0.4c0.4,0,0.6-0.3,0.6-0.7
				s-0.2-0.7-0.6-0.7h-0.4V62.9z"/>
			<path d="M235.4,62.9h0.6c-0.1,0.4-0.4,0.6-0.9,0.6c-0.6,0-1-0.4-1-1c0-0.6,0.4-1,0.9-1c0.6,0,0.9,0.5,0.9,1.1h-1.3
				c0,0.3,0.2,0.4,0.4,0.4C235.3,63.1,235.4,63,235.4,62.9z M234.7,62.3h0.7c0-0.3-0.2-0.4-0.4-0.4
				C234.9,61.9,234.7,62.1,234.7,62.3z"/>
			<path d="M238.1,62.5c0,0.6-0.3,1-0.8,1c-0.3,0-0.5-0.1-0.5-0.2h0v0.2h-0.6v-2.5h0.6v0.9h0c0.1-0.1,0.3-0.2,0.5-0.2
				C237.8,61.6,238.1,61.9,238.1,62.5z M237.5,62.5c0-0.4-0.1-0.5-0.4-0.5c-0.2,0-0.4,0.2-0.4,0.5s0.1,0.5,0.4,0.5
				C237.4,63.1,237.5,62.9,237.5,62.5z"/>
			<path d="M239,62v0.8c0,0.2,0.1,0.2,0.3,0.2v0.4c-0.1,0-0.2,0-0.4,0c-0.4,0-0.5-0.2-0.5-0.6V62h-0.3v-0.4h0.3v-0.5h0.6v0.5h0.3V62
				H239z"/>
			<path d="M241.2,61.4c-0.4,0-0.6,0.3-0.6,0.8c0,0.5,0.1,0.8,0.6,0.8c0.3,0,0.5-0.2,0.5-0.5h0.6c-0.1,0.6-0.4,1-1.1,1
				c-0.8,0-1.2-0.6-1.2-1.3c0-0.8,0.4-1.3,1.2-1.3c0.7,0,1.1,0.4,1.1,1h-0.6C241.7,61.6,241.6,61.4,241.2,61.4z"/>
			<path d="M243.5,63.5c-0.6,0-1-0.4-1-1c0-0.6,0.4-1,1-1c0.6,0,1,0.4,1,1C244.5,63.1,244.1,63.5,243.5,63.5z M243.5,63.1
				c0.2,0,0.4-0.2,0.4-0.5s-0.2-0.5-0.4-0.5c-0.3,0-0.4,0.2-0.4,0.5S243.2,63.1,243.5,63.1z"/>
			<path d="M246.4,62.2v1.2h-0.6v-1c0-0.3-0.1-0.4-0.3-0.4c-0.2,0-0.3,0.1-0.3,0.4v1h-0.6v-1.8h0.6v0.3h0c0.1-0.2,0.3-0.3,0.6-0.3
				C246.2,61.6,246.4,61.8,246.4,62.2z"/>
			<path d="M248.3,62.9c0,0.4-0.3,0.6-0.8,0.6c-0.6,0-0.9-0.3-0.9-0.7h0.5c0,0.2,0.1,0.3,0.4,0.3c0.2,0,0.2-0.1,0.2-0.2
				c0-0.2-0.2-0.2-0.5-0.2c-0.3-0.1-0.6-0.2-0.6-0.6c0-0.3,0.3-0.6,0.8-0.6c0.6,0,0.8,0.3,0.8,0.6h-0.5c0-0.1-0.1-0.2-0.3-0.2
				c-0.2,0-0.2,0.1-0.2,0.1c0,0.1,0.1,0.1,0.4,0.2C247.9,62.4,248.3,62.5,248.3,62.9z"/>
			<path d="M249.4,63.5c-0.6,0-1-0.4-1-1c0-0.6,0.4-1,1-1c0.6,0,1,0.4,1,1C250.3,63.1,250,63.5,249.4,63.5z M249.4,63.1
				c0.2,0,0.4-0.2,0.4-0.5s-0.2-0.5-0.4-0.5c-0.3,0-0.4,0.2-0.4,0.5S249.1,63.1,249.4,63.1z"/>
			<path d="M251.1,60.9v2.5h-0.6v-2.5H251.1z"/>
			<path d="M251.4,61.1c0-0.2,0.1-0.3,0.3-0.3c0.2,0,0.3,0.1,0.3,0.3c0,0.2-0.1,0.3-0.3,0.3C251.5,61.4,251.4,61.3,251.4,61.1z
				 M251.9,61.6v1.8h-0.6v-1.8H251.9z"/>
			<path d="M254,60.9v2.5h-0.6v-0.2h0c-0.1,0.1-0.3,0.2-0.5,0.2c-0.5,0-0.8-0.4-0.8-1c0-0.6,0.3-1,0.8-1c0.3,0,0.5,0.1,0.5,0.2h0
				v-0.9H254z M253.4,62.5c0-0.4-0.1-0.5-0.4-0.5c-0.2,0-0.4,0.2-0.4,0.5s0.1,0.5,0.4,0.5C253.3,63.1,253.4,62.9,253.4,62.5z"/>
			<path d="M255.1,61.9c-0.2,0-0.3,0.1-0.3,0.3h-0.5c0-0.3,0.3-0.6,0.9-0.6c0.5,0,0.8,0.2,0.8,0.8v0.8c0,0.1,0,0.1,0.1,0.1v0.1
				c-0.1,0-0.2,0.1-0.3,0.1c-0.3,0-0.3-0.1-0.3-0.2h0c-0.1,0.1-0.3,0.2-0.6,0.2c-0.4,0-0.6-0.2-0.6-0.5c0-0.4,0.3-0.5,0.7-0.6
				c0.2,0,0.5-0.1,0.5-0.2C255.4,62,255.3,61.9,255.1,61.9z M255.4,62.8v-0.2c-0.1,0-0.2,0.1-0.3,0.1c-0.2,0-0.3,0.1-0.3,0.3
				c0,0.1,0.1,0.2,0.2,0.2C255.2,63.1,255.4,62.9,255.4,62.8z"/>
			<path d="M256.9,62v0.8c0,0.2,0.1,0.2,0.3,0.2v0.4c-0.1,0-0.2,0-0.4,0c-0.4,0-0.5-0.2-0.5-0.6V62h-0.3v-0.4h0.3v-0.5h0.6v0.5h0.3
				V62H256.9z"/>
			<path d="M257.5,61.1c0-0.2,0.1-0.3,0.3-0.3c0.2,0,0.3,0.1,0.3,0.3c0,0.2-0.1,0.3-0.3,0.3C257.6,61.4,257.5,61.3,257.5,61.1z
				 M258,61.6v1.8h-0.6v-1.8H258z"/>
			<path d="M259.2,63.5c-0.6,0-1-0.4-1-1c0-0.6,0.4-1,1-1c0.6,0,1,0.4,1,1C260.2,63.1,259.8,63.5,259.2,63.5z M259.2,63.1
				c0.2,0,0.4-0.2,0.4-0.5s-0.2-0.5-0.4-0.5c-0.3,0-0.4,0.2-0.4,0.5S258.9,63.1,259.2,63.1z"/>
			<path d="M262.1,62.2v1.2h-0.6v-1c0-0.3-0.1-0.4-0.3-0.4c-0.2,0-0.3,0.1-0.3,0.4v1h-0.6v-1.8h0.6v0.3h0c0.1-0.2,0.3-0.3,0.6-0.3
				C261.9,61.6,262.1,61.8,262.1,62.2z"/>
		</g>
	</g>
	<g>
		<g>
			<g>
				<path class="st0" d="M219.3,72.9c-0.9,0-1.8,0-2.7,0c-0.1,0-0.2-0.1-0.2-0.2c0-1.8,0-3.6,0-5.4c0-0.1,0.1-0.2,0.2-0.2
					c1.8,0,3.7-0.1,5.5,0c0,0,0,0.1,0,0.1c0,1.8,0,3.6,0,5.4c0,0.1-0.1,0.2-0.2,0.2C221.1,72.9,220.2,72.9,219.3,72.9L219.3,72.9z
					 M218.9,67.8c-0.4,0-1.2-0.2-1.2,0.4c0,0.2,0.3,0.4,0.5,0.4c0.4,0,0.7,0,1.1,0c0.2,0,0.5,0,0.7,0.2c0.5,0.4,0,1-0.5,1
					c-0.2,0-0.3-0.2-0.3-0.3c-0.1-0.6-0.9-0.8-1.4-0.6c-0.5,0.2-0.8,0.8-0.5,1.3c0.1,0.3,0.5,0.4,0.5,0.8c0,0.4-0.1,0.8,0.1,1.2
					c0.1,0.2,0.4,0.3,0.6,0.1c0.2-0.3,0.1-0.7,0.1-1c0-0.2,0-0.2,0.1-0.1c0.4,0.7,1.1,1.1,1.8,1.2c0.3,0,0.7-0.3,0.5-0.6
					c-0.1-0.2-0.3-0.2-0.5-0.2c-0.3,0-0.5-0.2-0.7-0.3c-0.2-0.2-0.4-0.4,0-0.4c1.3-0.1,1.8-1.8,0.7-2.5
					C220,67.8,219.5,67.8,218.9,67.8L218.9,67.8z"/>
				<path class="st0" d="M219,67.8c0.5,0,1.1-0.1,1.5,0.3c1,0.7,0.6,2.3-0.6,2.5c-0.4,0-0.4,0.1-0.1,0.4c0.2,0.2,0.5,0.4,0.8,0.4
					c0.2,0,0.4,0.1,0.5,0.2c0.2,0.3-0.2,0.7-0.5,0.6c-0.6-0.2-1.3-0.5-1.7-1.1c0-0.1-0.1-0.2-0.1-0.2c0,0-0.1,0.1-0.1,0.2
					c0,0.4,0.1,0.8-0.2,1.1c-0.1,0.1-0.3,0-0.4-0.1c-0.1-0.2-0.2-0.4-0.1-0.6c0-0.3,0-0.6,0-0.8c0-0.1-0.1-0.2-0.2-0.2
					c-0.2-0.2-0.4-0.5-0.4-0.8c0-0.3,0.3-0.7,0.6-0.8c0.3-0.1,0.7-0.1,1,0.1c0.2,0.1,0.3,0.4,0.4,0.6c0,0.1,0.1,0.2,0.2,0.2
					c0.5,0.1,1-0.3,0.8-0.8c-0.2-0.4-0.7-0.4-1-0.3c-0.3,0-0.7,0-1,0c-0.2,0-0.3-0.1-0.4-0.2c-0.1-0.2,0-0.4,0.1-0.5
					c0.1-0.1,0.2-0.1,0.4-0.1C218.5,67.8,218.7,67.8,219,67.8L219,67.8z M218.1,69.6c-0.1,0-0.1,0.1-0.1,0.1
					c0.1,0.1,0.4,0.1,0.4-0.1C218.4,69.6,218.2,69.6,218.1,69.6L218.1,69.6z"/>
				<path class="st0" d="M218.1,69.6c0.1,0,0.2,0,0.2,0c0.1,0,0.1,0.1,0,0.2c0,0-0.1,0-0.2,0C218,69.8,218,69.6,218.1,69.6
					L218.1,69.6z"/>
			</g>
		</g>
		<g>
			<path class="st0" d="M222.6,71.5h0.6c-0.1,0.4-0.4,0.6-0.9,0.6c-0.6,0-1-0.4-1-1c0-0.6,0.4-1,0.9-1c0.6,0,0.9,0.5,0.9,1.1h-1.3
				c0,0.3,0.2,0.4,0.4,0.4C222.4,71.6,222.5,71.5,222.6,71.5z M221.9,70.9h0.7c0-0.3-0.2-0.4-0.4-0.4
				C222,70.5,221.9,70.7,221.9,70.9z"/>
			<path class="st0" d="M223.9,69.5V72h-0.6v-2.5H223.9z"/>
			<path class="st0" d="M224.2,69.7c0-0.2,0.1-0.3,0.3-0.3c0.2,0,0.3,0.1,0.3,0.3c0,0.2-0.1,0.3-0.3,0.3
				C224.3,70,224.2,69.9,224.2,69.7z M224.8,70.2V72h-0.6v-1.8H224.8z"/>
			<path class="st0" d="M225.9,70.5c-0.2,0-0.3,0.1-0.3,0.3H225c0-0.3,0.3-0.6,0.9-0.6c0.5,0,0.8,0.2,0.8,0.8v0.8
				c0,0.1,0,0.1,0.1,0.1V72c-0.1,0-0.2,0.1-0.3,0.1c-0.3,0-0.3-0.1-0.3-0.2h0c-0.1,0.1-0.3,0.2-0.6,0.2c-0.4,0-0.6-0.2-0.6-0.5
				c0-0.4,0.3-0.5,0.7-0.6c0.2,0,0.5-0.1,0.5-0.2C226.1,70.6,226,70.5,225.9,70.5z M226.1,71.3v-0.2c-0.1,0-0.2,0.1-0.3,0.1
				c-0.2,0-0.3,0.1-0.3,0.3c0,0.1,0.1,0.2,0.2,0.2C226,71.7,226.1,71.5,226.1,71.3z"/>
			<path class="st0" d="M228.9,71.1c0,0.6-0.3,1-0.8,1c-0.3,0-0.5-0.1-0.5-0.2h0V72H227v-2.5h0.6v0.9h0c0.1-0.1,0.3-0.2,0.5-0.2
				C228.6,70.1,228.9,70.5,228.9,71.1z M228.3,71.1c0-0.4-0.1-0.5-0.4-0.5c-0.2,0-0.4,0.2-0.4,0.5c0,0.4,0.1,0.5,0.4,0.5
				C228.2,71.6,228.3,71.5,228.3,71.1z"/>
			<path class="st0" d="M229.6,69.5V72h-0.6v-2.5H229.6z"/>
			<path class="st0" d="M231.1,71.5h0.6c-0.1,0.4-0.4,0.6-0.9,0.6c-0.6,0-1-0.4-1-1c0-0.6,0.4-1,0.9-1c0.6,0,0.9,0.5,0.9,1.1h-1.3
				c0,0.3,0.2,0.4,0.4,0.4C231,71.6,231.1,71.5,231.1,71.5z M230.4,70.9h0.7c0-0.3-0.2-0.4-0.4-0.4
				C230.6,70.5,230.4,70.7,230.4,70.9z"/>
			<path class="st0" d="M232.5,69.5h1.1c0.7,0,1.1,0.5,1.1,1.3c0,0.8-0.4,1.3-1.1,1.3h-1.2V69.5z M233.2,71.5h0.4
				c0.4,0,0.6-0.3,0.6-0.7c0-0.5-0.2-0.7-0.6-0.7h-0.4V71.5z"/>
			<path class="st0" d="M236.2,71.5h0.6c-0.1,0.4-0.4,0.6-0.9,0.6c-0.6,0-1-0.4-1-1c0-0.6,0.4-1,0.9-1c0.6,0,0.9,0.5,0.9,1.1h-1.3
				c0,0.3,0.2,0.4,0.4,0.4C236.1,71.6,236.2,71.5,236.2,71.5z M235.5,70.9h0.7c0-0.3-0.2-0.4-0.4-0.4
				C235.6,70.5,235.5,70.7,235.5,70.9z"/>
			<path class="st0" d="M238.9,71.1c0,0.6-0.3,1-0.8,1c-0.3,0-0.5-0.1-0.5-0.2h0V72H237v-2.5h0.6v0.9h0c0.1-0.1,0.3-0.2,0.5-0.2
				C238.6,70.1,238.9,70.5,238.9,71.1z M238.3,71.1c0-0.4-0.1-0.5-0.4-0.5c-0.2,0-0.4,0.2-0.4,0.5c0,0.4,0.1,0.5,0.4,0.5
				C238.2,71.6,238.3,71.5,238.3,71.1z"/>
			<path class="st0" d="M239.7,70.6v0.8c0,0.2,0.1,0.2,0.3,0.2V72c-0.1,0-0.2,0-0.4,0c-0.4,0-0.5-0.2-0.5-0.6v-0.8h-0.3v-0.4h0.3
				v-0.5h0.6v0.5h0.3v0.4H239.7z"/>
			<path class="st0" d="M242,69.9c-0.4,0-0.6,0.3-0.6,0.8c0,0.5,0.1,0.8,0.6,0.8c0.3,0,0.5-0.2,0.5-0.5h0.6c-0.1,0.6-0.4,1-1.1,1
				c-0.8,0-1.2-0.6-1.2-1.3c0-0.8,0.4-1.3,1.2-1.3c0.7,0,1.1,0.4,1.1,1h-0.6C242.5,70.1,242.3,69.9,242,69.9z"/>
			<path class="st0" d="M244.3,72.1c-0.6,0-1-0.4-1-1s0.4-1,1-1c0.6,0,1,0.4,1,1S244.9,72.1,244.3,72.1z M244.3,71.6
				c0.2,0,0.4-0.2,0.4-0.5s-0.2-0.5-0.4-0.5c-0.3,0-0.4,0.2-0.4,0.5S244,71.6,244.3,71.6z"/>
			<path class="st0" d="M247.2,70.8V72h-0.6v-1c0-0.3-0.1-0.4-0.3-0.4c-0.2,0-0.3,0.1-0.3,0.4v1h-0.6v-1.8h0.6v0.3h0
				c0.1-0.2,0.3-0.3,0.6-0.3C246.9,70.1,247.2,70.4,247.2,70.8z"/>
			<path class="st0" d="M249,71.5c0,0.4-0.3,0.6-0.8,0.6c-0.6,0-0.9-0.3-0.9-0.7h0.5c0,0.2,0.1,0.3,0.4,0.3c0.2,0,0.2-0.1,0.2-0.2
				c0-0.2-0.2-0.2-0.5-0.2c-0.3-0.1-0.6-0.2-0.6-0.6c0-0.3,0.3-0.6,0.8-0.6c0.6,0,0.8,0.3,0.8,0.6h-0.5c0-0.1-0.1-0.2-0.3-0.2
				c-0.2,0-0.2,0.1-0.2,0.1c0,0.1,0.1,0.1,0.4,0.2C248.7,70.9,249,71.1,249,71.5z"/>
			<path class="st0" d="M250.1,72.1c-0.6,0-1-0.4-1-1s0.4-1,1-1c0.6,0,1,0.4,1,1S250.7,72.1,250.1,72.1z M250.1,71.6
				c0.2,0,0.4-0.2,0.4-0.5s-0.2-0.5-0.4-0.5c-0.3,0-0.4,0.2-0.4,0.5S249.9,71.6,250.1,71.6z"/>
			<path class="st0" d="M251.9,69.5V72h-0.6v-2.5H251.9z"/>
			<path class="st0" d="M252.1,69.7c0-0.2,0.1-0.3,0.3-0.3c0.2,0,0.3,0.1,0.3,0.3c0,0.2-0.1,0.3-0.3,0.3
				C252.2,70,252.1,69.9,252.1,69.7z M252.7,70.2V72h-0.6v-1.8H252.7z"/>
			<path class="st0" d="M254.8,69.5V72h-0.6v-0.2h0c-0.1,0.1-0.3,0.2-0.5,0.2c-0.5,0-0.8-0.4-0.8-1s0.3-1,0.8-1
				c0.3,0,0.5,0.1,0.5,0.2h0v-0.9H254.8z M254.2,71.1c0-0.4-0.1-0.5-0.4-0.5c-0.2,0-0.4,0.2-0.4,0.5c0,0.4,0.1,0.5,0.4,0.5
				C254.1,71.6,254.2,71.5,254.2,71.1z"/>
			<path class="st0" d="M255.9,70.5c-0.2,0-0.3,0.1-0.3,0.3H255c0-0.3,0.3-0.6,0.9-0.6c0.5,0,0.8,0.2,0.8,0.8v0.8
				c0,0.1,0,0.1,0.1,0.1V72c-0.1,0-0.2,0.1-0.3,0.1c-0.3,0-0.3-0.1-0.3-0.2h0c-0.1,0.1-0.3,0.2-0.6,0.2c-0.4,0-0.6-0.2-0.6-0.5
				c0-0.4,0.3-0.5,0.7-0.6c0.2,0,0.5-0.1,0.5-0.2C256.1,70.6,256,70.5,255.9,70.5z M256.1,71.3v-0.2c-0.1,0-0.2,0.1-0.3,0.1
				c-0.2,0-0.3,0.1-0.3,0.3c0,0.1,0.1,0.2,0.2,0.2C256,71.7,256.1,71.5,256.1,71.3z"/>
			<path class="st0" d="M257.7,70.6v0.8c0,0.2,0.1,0.2,0.3,0.2V72c-0.1,0-0.2,0-0.4,0c-0.4,0-0.5-0.2-0.5-0.6v-0.8h-0.3v-0.4h0.3
				v-0.5h0.6v0.5h0.3v0.4H257.7z"/>
			<path class="st0" d="M258.2,69.7c0-0.2,0.1-0.3,0.3-0.3c0.2,0,0.3,0.1,0.3,0.3c0,0.2-0.1,0.3-0.3,0.3
				C258.3,70,258.2,69.9,258.2,69.7z M258.8,70.2V72h-0.6v-1.8H258.8z"/>
			<path class="st0" d="M259.9,72.1c-0.6,0-1-0.4-1-1s0.4-1,1-1c0.6,0,1,0.4,1,1S260.5,72.1,259.9,72.1z M259.9,71.6
				c0.2,0,0.4-0.2,0.4-0.5s-0.2-0.5-0.4-0.5c-0.3,0-0.4,0.2-0.4,0.5S259.7,71.6,259.9,71.6z"/>
			<path class="st0" d="M262.9,70.8V72h-0.6v-1c0-0.3-0.1-0.4-0.3-0.4c-0.2,0-0.3,0.1-0.3,0.4v1h-0.6v-1.8h0.6v0.3h0
				c0.1-0.2,0.3-0.3,0.6-0.3C262.6,70.1,262.9,70.4,262.9,70.8z"/>
		</g>
	</g>
</g>
</svg>
