<svg width="317" height="128" viewBox="0 0 317 128" fill="none" xmlns="http://www.w3.org/2000/svg">
<g clip-path="url(#clip0_3_338)">
<path fill-rule="evenodd" clip-rule="evenodd" d="M24.1569 66.8673L20.2357 68.4585C14.0499 70.9873 10.9545 74.1695 10.9545 78.0002C10.9545 79.5199 11.3513 80.7434 12.1433 81.6709C12.9336 82.6 13.9655 83.0629 15.2354 83.0629C16.3634 83.0629 17.6705 82.6885 19.1583 81.9415C20.6444 81.1944 22.3111 80.0746 24.1569 78.5805V66.8673ZM34.5426 79.5199H35.8514C35.6369 83.6415 33.6341 85.7006 29.8429 85.7006C28.2217 85.7006 26.9399 85.2684 25.9993 84.4005C25.0587 83.5326 24.4423 82.2444 24.1569 80.5324C21.7606 82.2444 19.5754 83.5326 17.5979 84.4005C15.6204 85.2684 13.8523 85.7006 12.2953 85.7006C10.3077 85.7006 8.59361 85.1237 7.1565 83.9648C5.7194 82.8111 5 81.2778 5 79.3752C5 76.8941 6.20406 74.7243 8.61219 72.8677C11.0203 71.0128 14.3454 69.2038 18.5858 67.4442L24.1569 65.1656V63.7225C24.1569 61.6719 24.0252 60.1913 23.7618 59.2741C23.4966 58.3585 22.8144 57.54 21.71 56.8168C20.6072 56.0935 19.1566 55.7327 17.3581 55.7327C13.7594 55.7327 11.7566 56.9376 11.3496 59.349C10.9663 61.8063 9.96317 63.035 8.33524 63.035C6.87786 63.035 6.14665 62.3355 6.14665 60.9367C6.14665 59.5634 7.11598 58.088 9.05463 56.5104C10.9916 54.9295 14.0043 54.1416 18.0944 54.1416C21.1307 54.1416 23.4882 54.6232 25.1617 55.5864C26.8352 56.5513 27.9414 57.6472 28.4801 58.8776C29.0171 60.1062 29.2873 61.9867 29.2873 64.5172V76.4839C29.2873 79.2782 29.4325 81.0753 29.7179 81.87C30.0067 82.6647 30.6298 83.0629 31.5907 83.0629C33.1747 83.0629 34.1576 81.8819 34.5426 79.5199Z" fill="#297EA2"/>
<path fill-rule="evenodd" clip-rule="evenodd" d="M65.4764 77.7126H67.0182C65.3919 83.3284 61.3238 86.1363 54.8171 86.1363C50.6291 86.1363 47.1064 84.7017 44.2474 81.8342C41.3884 78.9668 39.9597 75.1702 39.9597 70.4461C39.9597 65.6012 41.5015 61.6719 44.5868 58.6615C47.6738 55.6477 51.3198 54.1416 55.5281 54.1416C58.0628 54.1416 60.395 54.7015 62.5245 55.8229C64.6523 56.9427 65.7178 58.3109 65.7178 59.9259C65.7178 60.5266 65.5203 61.095 65.1251 61.6242C64.7316 62.1552 64.1625 62.4206 63.4212 62.4206C61.8439 62.4206 60.8746 61.4915 60.5166 59.6366C60.2278 58.2377 59.7853 57.2626 59.1875 56.7078C58.5661 56.1548 57.3586 55.8757 55.5652 55.8757C52.3583 55.8757 49.9502 56.9954 48.3375 59.2401C46.723 61.4796 45.9158 64.8541 45.9158 69.3621C45.9158 74.013 46.7838 77.6513 48.5215 80.2789C50.2592 82.9064 52.8903 84.2201 56.4146 84.2201C61.16 84.2201 64.1794 82.0504 65.4764 77.7126Z" fill="#4A4A47"/>
<path fill-rule="evenodd" clip-rule="evenodd" d="M97.6002 77.7126H99.1437C97.5174 83.3284 93.4493 86.1363 86.9426 86.1363C82.7529 86.1363 79.2319 84.7017 76.3729 81.8342C73.5138 78.9668 72.0835 75.1702 72.0835 70.4461C72.0835 65.6012 73.627 61.6719 76.7123 58.6615C79.7976 55.6477 83.4453 54.1416 87.6536 54.1416C90.1883 54.1416 92.5205 54.7015 94.65 55.8229C96.7778 56.9427 97.8433 58.3109 97.8433 59.9259C97.8433 60.5266 97.6441 61.095 97.2506 61.6242C96.8571 62.1552 96.288 62.4206 95.5467 62.4206C93.9694 62.4206 92.9984 61.4915 92.6404 59.6366C92.3533 58.2377 91.9108 57.2626 91.313 56.7078C90.6916 56.1548 89.4825 55.8757 87.6907 55.8757C84.4838 55.8757 82.0757 56.9954 80.4613 59.2401C78.8468 61.4796 78.0396 64.8541 78.0396 69.3621C78.0396 74.013 78.9076 77.6513 80.647 80.2789C82.3847 82.9064 85.0141 84.2201 88.5401 84.2201C93.2855 84.2201 96.3049 82.0504 97.6002 77.7126Z" fill="#4A4A47"/>
<path fill-rule="evenodd" clip-rule="evenodd" d="M113.789 61.6971C114.601 59.5512 115.924 57.7559 117.752 56.3094C119.583 54.8646 121.37 54.1414 123.116 54.1414C124.695 54.1414 125.938 54.6366 126.848 55.6236C127.756 56.6123 128.211 57.6248 128.211 58.6612C128.211 59.3589 127.978 59.9614 127.51 60.4668C127.044 60.9739 126.476 61.2258 125.806 61.2258C124.61 61.2258 123.702 60.3357 123.08 58.5523C122.651 57.3475 122.003 56.7433 121.143 56.7433C120.115 56.7433 118.884 57.4479 117.448 58.8586C116.013 60.2694 115.091 61.7329 114.686 63.2526C114.279 64.7688 114.074 66.8552 114.074 69.5048V74.7836C114.074 77.9404 114.118 79.9297 114.203 80.75C114.285 81.5685 114.63 82.1931 115.231 82.627C115.832 83.0627 116.905 83.2788 118.445 83.2788H119.456V84.9431H103.851V83.2788H104.604C106.039 83.2788 107.061 83.0797 107.671 82.6832C108.282 82.285 108.647 81.7251 108.767 81.0019C108.887 80.2786 108.946 78.2076 108.946 74.7836V66.4331C108.946 63.2526 108.903 61.2564 108.821 60.4498C108.735 59.6431 108.395 59.0152 107.799 58.571C107.2 58.1235 106.136 57.9005 104.604 57.9005H103.851V56.2737C106.09 56.0082 109.02 55.2986 112.641 54.1414C113.333 56.0456 113.718 58.5642 113.789 61.6971Z" fill="#4A4A47"/>
<path fill-rule="evenodd" clip-rule="evenodd" d="M151.474 63.9017C151.545 63.3486 151.583 62.8551 151.583 62.4211C151.583 60.299 150.964 58.6551 149.73 57.4843C148.496 56.3169 146.979 55.7315 145.181 55.7315C140.817 55.7315 138.216 58.456 137.375 63.9017H151.474ZM157.753 65.3839H137.232C137.137 66.8048 137.088 67.8633 137.088 68.5594C137.088 73.7565 137.897 77.6586 139.515 80.2691C141.134 82.8779 143.549 84.1832 146.761 84.1832C151.125 84.1832 154.217 82.2193 156.041 78.29H157.753C156.986 80.749 155.465 82.6703 153.192 84.0555C150.915 85.4425 148.436 86.1351 145.753 86.1351C143.264 86.1351 140.911 85.5037 138.696 84.2376C136.48 82.9715 134.665 81.183 133.253 78.8686C131.84 76.5559 131.134 73.748 131.134 70.4466C131.134 65.7702 132.498 61.8834 135.227 58.7879C137.96 55.689 141.372 54.1421 145.468 54.1421C149.323 54.1421 152.305 55.3265 154.413 57.6954C156.52 60.0659 157.633 62.6287 157.753 65.3839Z" fill="#4A4A47"/>
<path fill-rule="evenodd" clip-rule="evenodd" d="M188.908 60.5754C187.328 59.2021 185.74 58.1726 184.148 57.485C182.552 56.7975 180.955 56.4555 179.349 56.4555C176.64 56.4555 174.38 57.5038 172.573 59.5986C170.763 61.6969 169.861 65.1191 169.861 69.867C169.861 74.6864 170.788 78.2413 172.644 80.5336C174.502 82.8208 176.795 83.966 179.528 83.966C181.35 83.966 183.037 83.5321 184.595 82.6642C186.152 81.798 187.591 80.4962 188.908 78.7604V60.5754ZM188.908 58.4789V46.9103C188.908 43.7536 188.866 41.7642 188.782 40.9457C188.699 40.1272 188.356 39.4992 187.76 39.067C187.164 38.633 186.098 38.4152 184.568 38.4152H183.815V36.7526C186.698 36.6794 189.856 36.174 193.289 35.2329H194.039V75.0369C194.039 78.483 194.1 80.5796 194.22 81.3266C194.336 82.0737 194.714 82.6268 195.348 82.9892C195.981 83.3517 197.16 83.5321 198.884 83.5321V85.1964C195.427 85.2679 192.355 85.581 189.663 86.1358C189.376 85.0024 189.233 83.2207 189.233 80.7838C187.461 82.5689 185.634 83.9048 183.753 84.7982C181.872 85.6899 179.926 86.1358 177.917 86.1358C174.105 86.1358 170.819 84.5923 168.053 81.5087C165.287 78.4234 163.903 74.6864 163.903 70.301C163.903 65.4816 165.319 61.5829 168.144 58.6048C170.971 55.6301 174.336 54.1411 178.239 54.1411C180.225 54.1411 182.108 54.5019 183.878 55.2268C185.651 55.9484 187.328 57.0324 188.908 58.4789Z" fill="#4A4A47"/>
<path fill-rule="evenodd" clip-rule="evenodd" d="M212.138 54.1416V74.7839C212.138 77.9406 212.185 79.93 212.281 80.7502C212.376 81.5688 212.722 82.1933 213.321 82.6273C213.919 83.0629 214.985 83.279 216.515 83.279H217.268V84.9434H201.448V83.279H202.667C204.363 83.279 205.472 83.0323 205.986 82.5388C206.501 82.0453 206.798 81.4548 206.884 80.7655C206.965 80.0814 207.007 78.087 207.007 74.7839V65.819C207.007 62.3475 206.847 60.2271 206.523 59.4562C206.2 58.6836 205.769 58.2037 205.231 58.0097C204.694 57.8157 203.755 57.7204 202.416 57.7204H201.448V56.0561C205.702 55.6238 209.005 54.9857 211.349 54.1416H212.138Z" fill="#4A4A47"/>
<path fill-rule="evenodd" clip-rule="evenodd" d="M239.563 56.9616H230.704V74.8555C230.704 77.6039 230.822 79.4537 231.06 80.405C231.298 81.358 231.808 82.122 232.585 82.7023C233.362 83.2775 234.193 83.5685 235.079 83.5685C236.8 83.5685 238.296 82.5798 239.563 80.6041L240.711 81.2916C239.968 82.881 238.876 84.0808 237.428 84.8874C235.981 85.6957 234.517 86.099 233.034 86.099C231.31 86.099 229.8 85.5868 228.495 84.5624C227.191 83.5379 226.377 82.3399 226.056 80.9665C225.734 79.5915 225.572 77.1818 225.572 73.7341V56.9616H221.32V55.316C223.277 55.2684 225.031 54.4379 226.582 52.8212C228.134 51.208 229.123 48.9412 229.552 46.0261H230.704V55.2973H239.563V56.9616Z" fill="#4A4A47"/>
<path fill-rule="evenodd" clip-rule="evenodd" d="M264.622 63.9017C264.693 63.3486 264.728 62.8551 264.728 62.4211C264.728 60.299 264.11 58.6551 262.879 57.4843C261.641 56.3169 260.126 55.7315 258.326 55.7315C253.962 55.7315 251.362 58.456 250.523 63.9017H264.622ZM270.9 65.3839H250.379C250.283 66.8048 250.235 67.8633 250.235 68.5594C250.235 73.7565 251.044 77.6586 252.664 80.2691C254.28 82.8779 256.696 84.1832 259.91 84.1832C264.274 84.1832 267.364 82.2193 269.188 78.29H270.9C270.132 80.749 268.61 82.6703 266.336 84.0555C264.063 85.4425 261.582 86.1351 258.9 86.1351C256.411 86.1351 254.057 85.5037 251.843 84.2376C249.627 82.9715 247.812 81.183 246.399 78.8686C244.989 76.5559 244.279 73.748 244.279 70.4466C244.279 65.7702 245.645 61.8834 248.376 58.7879C251.107 55.689 254.518 54.1421 258.613 54.1421C262.47 54.1421 265.449 55.3265 267.557 57.6954C269.666 60.0659 270.78 62.6287 270.9 65.3839Z" fill="#4A4A47"/>
<path fill-rule="evenodd" clip-rule="evenodd" d="M302.056 60.5754C300.473 59.2021 298.886 58.1726 297.293 57.485C295.699 56.7975 294.1 56.4555 292.494 56.4555C289.785 56.4555 287.526 57.5038 285.719 59.5986C283.909 61.6969 283.005 65.1191 283.005 69.867C283.005 74.6864 283.936 78.2413 285.79 80.5336C287.649 82.8208 289.942 83.966 292.675 83.966C294.495 83.966 296.184 83.5321 297.741 82.6642C299.3 81.798 300.737 80.4962 302.056 78.7604V60.5754ZM302.056 58.4789V46.9103C302.056 43.7536 302.013 41.7642 301.931 40.9457C301.846 40.1272 301.505 39.4992 300.907 39.067C300.308 38.633 299.246 38.4152 297.716 38.4152H296.959V36.7526C299.845 36.6794 303.003 36.174 306.436 35.2329H307.184V75.0369C307.184 78.483 307.243 80.5796 307.365 81.3266C307.485 82.0737 307.862 82.6268 308.495 82.9892C309.126 83.3517 310.307 83.5321 312.028 83.5321V85.1964C308.573 85.2679 305.499 85.581 302.809 86.1358C302.52 85.0024 302.378 83.2207 302.378 80.7838C300.605 82.5689 298.781 83.9048 296.9 84.7982C295.02 85.6899 293.075 86.1358 291.062 86.1358C287.252 86.1358 283.964 84.5923 281.198 81.5087C278.434 78.4234 277.051 74.6864 277.051 70.301C277.051 65.4816 278.462 61.5829 281.289 58.6048C284.116 55.6301 287.48 54.1411 291.386 54.1411C293.372 54.1411 295.254 54.5019 297.025 55.2268C298.796 55.9484 300.475 57.0324 302.056 58.4789Z" fill="#4A4A47"/>
<path fill-rule="evenodd" clip-rule="evenodd" d="M189.384 109.871H191.882C195.229 109.871 198.079 108.019 198.079 104.376C198.079 102.504 197.108 98.8807 192.358 98.8807H189.384V109.871ZM187.402 97.0071H192.503C198.679 97.0071 200.187 101.649 200.187 104.376C200.187 108.143 197.399 111.744 192.172 111.744H187.402V97.0071Z" fill="#494A47"/>
<path fill-rule="evenodd" clip-rule="evenodd" d="M203.24 97.0078H212.678V98.8814H205.222V103.274H212.164V105.147H205.222V109.871H213.051V111.745H203.24V97.0078Z" fill="#494A47"/>
<path fill-rule="evenodd" clip-rule="evenodd" d="M218.045 109.997H220.958C222.155 109.997 224.117 109.58 224.117 107.499C224.117 105.751 222.9 104.876 220.978 104.876H218.045V109.997ZM218.045 103.127H220.753C222.26 103.127 223.477 102.523 223.477 100.922C223.477 99.7559 222.755 98.757 221.166 98.757H218.045V103.127ZM216.062 97.0076H221.142C223.685 97.0076 225.585 98.1937 225.585 100.692C225.585 102.378 224.553 103.438 223.065 103.939V103.981C224.82 104.107 226.225 105.668 226.225 107.645C226.225 110.288 223.932 111.745 221.083 111.745H216.062V97.0076Z" fill="#494A47"/>
<path fill-rule="evenodd" clip-rule="evenodd" d="M232.336 98.8814H227.626V97.0078H239.029V98.8814H234.319V111.745H232.336V98.8814Z" fill="#494A47"/>
<path fill-rule="evenodd" clip-rule="evenodd" d="M249.266 103.502H251.869C253.441 103.502 255.008 103.128 255.008 101.13C255.008 99.1321 253.441 98.756 251.869 98.756H249.266V103.502ZM247.284 97.0083H252.428C256.167 97.0083 257.116 99.2767 257.116 101.13C257.116 103.002 255.733 104.772 253.524 105.022L257.675 111.744H255.196L251.479 105.25H249.266V111.744H247.284V97.0083Z" fill="#494A47"/>
<path fill-rule="evenodd" clip-rule="evenodd" d="M260.108 97.0078H269.548V98.8814H262.09V103.274H269.029V105.147H262.09V109.871H269.921V111.745H260.108V97.0078Z" fill="#494A47"/>
<path fill-rule="evenodd" clip-rule="evenodd" d="M272.932 97.0078H274.914V109.871H281.625V111.745H272.932V97.0078Z" fill="#494A47"/>
<path fill-rule="evenodd" clip-rule="evenodd" d="M283.855 111.746H285.838V97.0085H283.855V111.746Z" fill="#494A47"/>
<path fill-rule="evenodd" clip-rule="evenodd" d="M289.802 97.0078H299.241V98.8814H291.785V103.274H298.724V105.147H291.785V109.871H299.614V111.745H289.802V97.0078Z" fill="#494A47"/>
<path fill-rule="evenodd" clip-rule="evenodd" d="M302.626 97.0078H311.816V98.8814H304.609V103.502H311.32V105.375H304.609V111.745H302.626V97.0078Z" fill="#494A47"/>
<path fill-rule="evenodd" clip-rule="evenodd" d="M281.393 26.173C282.17 26.9575 284.604 27.9395 284.313 28.627C284.023 29.3128 282.579 29.614 282.17 29.6072C281.405 29.597 278.568 28.3326 276.913 28.8227C274.238 29.614 275.062 30.5874 270.876 32.0594C266.69 33.5314 251.694 32.9426 243.904 34.709C236.114 36.4755 226.961 40.6958 219.269 43.148C211.573 45.602 203.395 43.8355 202.81 43.2467C202.229 42.6579 203.202 37.5544 205.977 35.6909C208.751 33.8275 212.353 32.8439 212.353 32.8439C212.353 32.8439 220.241 31.8637 223.114 30.8324C225.986 29.8029 228.567 27.2179 230.222 27.155C243.027 26.6631 253.984 23.5234 253.984 23.5234C253.984 23.5234 272.433 17.8327 276.086 17.3903C279.739 16.9478 297.023 17.5877 297.023 17.5877L300.528 18.1765C300.528 18.1765 303.691 18.619 303.691 19.2537C303.691 19.8919 301.792 20.6287 301.792 20.6287C301.792 20.6287 281.393 23.8178 281.101 24.2092C280.809 24.6023 280.615 25.3868 281.393 26.173Z" fill="#F2B130"/>
</g>
<defs>
<clipPath id="clip0_3_338">
<rect width="307.348" height="97" fill="white" transform="translate(5 16)"/>
</clipPath>
</defs>
</svg>
