<svg width="342" height="48" viewBox="0 0 342 48" fill="none" xmlns="http://www.w3.org/2000/svg">
<g clip-path="url(#clip0_1_21)">
<path d="M67.8063 37.1212H58.3095V12.3989H68.0097C71.7474 12.3989 74.6651 13.514 76.7691 15.7442C78.8923 17.9744 79.9602 20.9966 79.9602 24.8108C79.9602 28.6249 78.8732 31.6217 76.7056 33.8076C74.557 36.0124 71.5948 37.1212 67.8126 37.1212H67.8063ZM63.274 17.1508V32.3694H68.0415C70.1646 32.3694 71.8237 31.6471 73.006 30.1962C74.1947 28.7453 74.7859 26.9206 74.7859 24.7094C74.7859 22.4982 74.1947 20.7748 73.006 19.324C71.8173 17.8731 70.1646 17.1508 68.0415 17.1508H63.274Z" fill="#1B6656"/>
<path d="M101.299 27.5859C101.299 28.1434 101.242 28.834 101.134 29.6577H87.4102C88.084 32.2427 89.8575 33.5352 92.7497 33.5352C94.8729 33.5352 96.8434 32.9206 98.6551 31.6978L100.537 35.0114C98.2101 36.6841 95.5467 37.5204 92.5463 37.5204C89.3489 37.5204 86.8826 36.5954 85.1599 34.7453C83.4563 32.9143 82.6109 30.6651 82.6109 27.985C82.6109 25.305 83.4945 22.91 85.2616 21.1297C87.0288 19.324 89.3235 18.418 92.1395 18.418C94.8029 18.418 96.996 19.2416 98.7186 20.8953C100.441 22.5426 101.306 24.7728 101.306 27.5859H101.299ZM92.1395 22.3335C90.9508 22.3335 89.9401 22.6756 89.101 23.3536C88.2619 24.0315 87.6962 24.9628 87.4038 26.1476H96.7036C96.4811 24.9628 95.9662 24.0378 95.1589 23.3536C94.3516 22.6756 93.3473 22.3335 92.1395 22.3335Z" fill="#1B6656"/>
<path d="M114.858 18.4244C117.452 18.4244 119.626 19.3494 121.367 21.1995C123.115 23.0305 123.986 25.3051 123.986 28.0231C123.986 30.7412 123.115 33.0158 121.367 34.8468C119.619 36.6525 117.452 37.5585 114.858 37.5585C112.551 37.5585 110.65 36.6525 109.15 34.8468V37.1214H104.554V11.6958H109.283V20.9968C110.803 19.2797 112.659 18.4181 114.852 18.4181L114.858 18.4244ZM109.086 27.9915C109.086 29.4424 109.557 30.6905 110.497 31.7359C111.438 32.737 112.646 33.2438 114.121 33.2438C115.596 33.2438 116.803 32.7433 117.744 31.7359C118.685 30.7095 119.155 29.4614 119.155 27.9915C119.155 26.5216 118.685 25.2797 117.744 24.2787C116.803 23.2776 115.596 22.7708 114.121 22.7708C112.646 22.7708 111.438 23.284 110.497 24.3104C109.557 25.3114 109.086 26.5406 109.086 27.9915Z" fill="#1B6656"/>
<path d="M138.823 32.3378L140.234 36.0505C138.715 37.0516 136.909 37.5584 134.831 37.5584C132.752 37.5584 131.137 36.9502 130.063 35.7337C128.989 34.5173 128.455 32.7306 128.455 30.3673V22.8404H125.467V18.8932H128.487V12.437H133.184V18.8932H139.223V22.8404H133.184V30.0632C133.184 32.2047 134.042 33.2754 135.771 33.2754C136.712 33.2754 137.729 32.965 138.823 32.3378Z" fill="#1B6656"/>
<path d="M168.991 37.1212H163.188L157.95 28.1244H154.994V37.1212H150.029V12.3989H159.526C162.279 12.3989 164.383 13.1592 165.838 14.6735C167.294 16.1877 168.019 18.0441 168.019 20.2236C168.019 21.8773 167.586 23.3535 166.728 24.6587C165.864 25.9639 164.618 26.9079 162.984 27.4845L168.991 37.1212ZM159.494 16.986H154.994V23.6766H159.056C160.308 23.6766 161.268 23.3662 161.923 22.7389C162.584 22.118 162.914 21.3007 162.914 20.2997C162.914 19.2986 162.609 18.551 161.993 17.9237C161.376 17.3028 160.543 16.986 159.494 16.986Z" fill="#1B6656"/>
<path d="M189.231 27.5859C189.231 28.1434 189.174 28.834 189.066 29.6577H175.342C176.015 32.2427 177.789 33.5352 180.675 33.5352C182.798 33.5352 184.768 32.9206 186.58 31.6978L188.462 35.0114C186.135 36.6841 183.472 37.5204 180.471 37.5204C177.274 37.5204 174.808 36.5954 173.085 34.7453C171.381 32.9143 170.536 30.6651 170.536 27.985C170.536 25.305 171.42 22.91 173.187 21.1297C174.954 19.324 177.249 18.418 180.065 18.418C182.728 18.418 184.921 19.2416 186.644 20.8953C188.366 22.5426 189.231 24.7728 189.231 27.5859ZM180.071 22.3335C178.882 22.3335 177.872 22.6756 177.032 23.3536C176.193 24.0315 175.628 24.9628 175.335 26.1476H184.629C184.406 24.9628 183.891 24.0378 183.084 23.3536C182.277 22.6756 181.272 22.3335 180.065 22.3335H180.071Z" fill="#1B6656"/>
<path d="M197.215 11.6958V37.1214H192.485V11.6958H197.215Z" fill="#1B6656"/>
<path d="M206.851 13.9387C206.851 14.7624 206.572 15.453 206.012 16.0105C205.453 16.5681 204.76 16.8468 203.934 16.8468C203.107 16.8468 202.414 16.5681 201.855 16.0105C201.296 15.453 201.016 14.7624 201.016 13.9387C201.016 13.1151 201.296 12.4308 201.855 11.8986C202.414 11.341 203.107 11.0623 203.934 11.0623C204.76 11.0623 205.453 11.341 206.012 11.8986C206.572 12.4308 206.851 13.1151 206.851 13.9387ZM206.279 18.887V37.1151H201.544V18.887H206.279Z" fill="#1B6656"/>
<path d="M228.261 27.5859C228.261 28.1434 228.203 28.834 228.095 29.6577H214.371C215.045 32.2427 216.819 33.5352 219.705 33.5352C221.828 33.5352 223.798 32.9206 225.61 31.6978L227.491 35.0114C225.165 36.6841 222.502 37.5204 219.501 37.5204C216.304 37.5204 213.837 36.5954 212.115 34.7453C210.418 32.9143 209.566 30.6651 209.566 27.985C209.566 25.305 210.449 22.91 212.216 21.1297C213.984 19.324 216.278 18.418 219.094 18.418C221.758 18.418 223.951 19.2416 225.673 20.8953C227.396 22.5426 228.261 24.7728 228.261 27.5859ZM219.101 22.3335C217.912 22.3335 216.901 22.6756 216.062 23.3536C215.223 24.0315 214.657 24.9628 214.365 26.1476H223.658C223.436 24.9628 222.921 24.0378 222.114 23.3536C221.306 22.6756 220.302 22.3335 219.094 22.3335H219.101Z" fill="#1B6656"/>
<path d="M240.98 15.0791C239.887 15.0791 239.048 15.3515 238.463 15.8964C237.878 16.4413 237.592 17.2269 237.592 18.2533V18.8869H243.262V22.8341H237.592V37.115H232.856V22.8341H230.04V18.8869H232.856V18.1519C232.856 15.7887 233.537 13.9957 234.903 12.7665C236.289 11.5184 238.082 10.8911 240.275 10.8911C242.086 10.8911 243.822 11.3346 245.474 12.228L243.93 15.8394C242.766 15.3262 241.781 15.0727 240.974 15.0727L240.98 15.0791Z" fill="#1B6656"/>
<path d="M263.839 37.5205C260.146 37.5205 257.082 36.304 254.641 33.8711C252.181 31.4191 250.947 28.4096 250.947 24.8363C250.947 21.2629 252.187 18.2027 254.672 15.7064C257.177 13.2101 260.241 11.9619 263.87 11.9619C267.5 11.9619 270.551 13.2101 273.03 15.7064C275.535 18.2027 276.787 21.2248 276.787 24.7729C276.787 28.3209 275.535 31.3304 273.03 33.8077C270.545 36.285 267.481 37.5205 263.832 37.5205H263.839ZM271.626 24.7729C271.626 22.4983 270.876 20.6166 269.375 19.1214C267.875 17.6261 266.019 16.8468 263.87 16.8468C261.722 16.8468 259.885 17.6071 258.366 19.1214C256.846 20.6356 256.115 22.4983 256.115 24.7729C256.115 27.0474 256.853 28.8975 258.328 30.3927C259.828 31.888 261.671 32.6356 263.864 32.6356C266.057 32.6356 267.901 31.888 269.401 30.3927C270.901 28.8975 271.638 27.0284 271.619 24.7729H271.626Z" fill="#1B6656"/>
<path d="M294.179 21.0663V18.8931H298.679V37.1212H294.179V35.0114C292.615 36.7094 290.664 37.5521 288.337 37.5521C285.699 37.5521 283.525 36.6397 281.828 34.8087C280.131 32.9776 279.279 30.6841 279.279 27.9153C279.279 25.1466 280.137 22.91 281.866 21.1233C283.589 19.3176 285.75 18.4116 288.344 18.4116C290.626 18.4116 292.571 19.2923 294.185 21.0536L294.179 21.0663ZM294.249 27.9913C294.249 26.5658 293.759 25.324 292.774 24.2786C291.814 23.2522 290.594 22.739 289.113 22.739C287.632 22.739 286.386 23.2522 285.42 24.2786C284.479 25.305 284.008 26.5404 284.008 27.9913C284.008 29.4422 284.491 30.7094 285.451 31.7358C286.411 32.7622 287.632 33.2754 289.106 33.2754C290.581 33.2754 291.802 32.7622 292.768 31.7358C293.753 30.6904 294.243 29.4422 294.243 27.9913H294.249Z" fill="#1B6656"/>
<path d="M309.047 37.5901C305.869 37.5901 303.352 36.418 301.495 34.0801L304.013 31.1022C304.661 31.8815 305.437 32.5025 306.346 32.9586C307.255 33.4148 308.164 33.6429 309.079 33.6429C309.797 33.6429 310.395 33.4782 310.878 33.1424C311.361 32.8066 311.596 32.3821 311.596 31.8689C311.596 31.2226 311.158 30.6968 310.287 30.2976C310.02 30.1836 309.289 29.9048 308.106 29.4613C307.058 29.0811 306.269 28.758 305.754 28.4919C303.65 27.4908 302.602 25.9132 302.602 23.7781C302.602 22.1941 303.224 20.8763 304.483 19.8309C305.716 18.8045 307.369 18.2913 309.448 18.2913C312.041 18.2913 314.177 19.1593 315.855 20.9016L313.503 23.9428C312.225 22.739 310.827 22.1371 309.308 22.1371C308.704 22.1371 308.208 22.2891 307.814 22.5869C307.42 22.891 307.229 23.2522 307.229 23.6767C307.229 24.437 307.763 24.9945 308.837 25.3493C311.234 26.2427 312.696 26.8319 313.236 27.1234C315.296 28.1941 316.326 29.7337 316.326 31.7422C316.326 33.4592 315.652 34.8657 314.31 35.9555C313.014 37.0516 311.259 37.5964 309.041 37.5964L309.047 37.5901Z" fill="#1B6656"/>
<path d="M324.952 13.9387C324.952 14.7624 324.672 15.453 324.112 16.0105C323.553 16.5681 322.86 16.8468 322.034 16.8468C321.207 16.8468 320.515 16.5681 319.955 16.0105C319.396 15.453 319.116 14.7624 319.116 13.9387C319.116 13.1151 319.396 12.4308 319.955 11.8986C320.515 11.341 321.207 11.0623 322.034 11.0623C322.86 11.0623 323.553 11.341 324.112 11.8986C324.672 12.4308 324.952 13.1151 324.952 13.9387ZM324.379 18.887V37.1151H319.644V18.887H324.379Z" fill="#1B6656"/>
<path d="M334.722 37.5901C331.543 37.5901 329.026 36.418 327.17 34.0801L329.687 31.1022C330.336 31.8815 331.111 32.5025 332.02 32.9586C332.929 33.4148 333.838 33.6429 334.753 33.6429C335.472 33.6429 336.069 33.4782 336.552 33.1424C337.035 32.8066 337.271 32.3821 337.271 31.8689C337.271 31.2226 336.832 30.6968 335.961 30.2976C335.694 30.1836 334.963 29.9048 333.781 29.4613C332.732 29.0811 331.944 28.758 331.429 28.4919C329.325 27.4908 328.276 25.9132 328.276 23.7781C328.276 22.1941 328.899 20.8763 330.158 19.8309C331.391 18.8045 333.043 18.2913 335.122 18.2913C337.716 18.2913 339.851 19.1593 341.53 20.9016L339.178 23.9428C337.9 22.739 336.501 22.1371 334.982 22.1371C334.378 22.1371 333.883 22.2891 333.488 22.5869C333.094 22.891 332.904 23.2522 332.904 23.6767C332.904 24.437 333.438 24.9945 334.512 25.3493C336.908 26.2427 338.37 26.8319 338.911 27.1234C340.97 28.1941 342 29.7337 342 31.7422C342 33.4592 341.326 34.8657 339.985 35.9555C338.688 37.0516 336.934 37.5964 334.715 37.5964L334.722 37.5901Z" fill="#1B6656"/>
<path d="M39.6146 24C39.6146 16.0106 34.275 10.0106 28.3633 10.0106C27.7976 10.0106 27.27 10.0486 26.7106 10.1626C30.6962 13.0517 33.2198 18.2978 33.2198 24C33.2198 33.0729 27.0475 40.1626 19.7882 40.1626C11.8488 40.1626 6.35664 32.3252 6.35664 24C6.39478 17.8479 8.57511 11.7402 12.4527 7.23548C15.8407 3.30095 20.2014 0.823654 25.0197 0.0380148C25.0197 0.0380148 24.6066 0 24.079 0C10.7999 0 0 10.7645 0 24C0 29.4361 1.80529 34.4604 4.88826 38.4773C8.53697 43.1278 13.8829 46.0549 19.7882 46.0549C31.2238 46.0929 39.6146 35.4805 39.6146 24.0063V24Z" fill="#6CBCAC"/>
<path d="M43.2633 9.52262C39.6146 4.87215 34.2687 1.91333 28.3633 1.91333C16.9277 1.91333 8.53697 12.5258 8.53697 23.9999C8.53697 31.9894 13.8765 37.9894 19.7882 37.9894C20.354 37.9894 20.8816 37.9513 21.441 37.8373C17.4553 34.9482 14.9318 29.7021 14.9318 23.9999C14.9318 14.9271 21.1041 7.8373 28.3633 7.8373C36.3028 7.8373 41.7949 15.6747 41.7949 23.9999C41.7568 30.152 39.5764 36.2597 35.6989 40.7644C32.3108 44.699 27.9502 47.1763 23.1318 47.9619C23.1318 47.9619 23.545 47.9999 24.0726 47.9999C37.3516 47.9999 48.1516 37.2354 48.1516 23.9999C48.1516 18.5638 46.3463 13.5395 43.2633 9.52262Z" fill="#1B6656"/>
</g>
<defs>
<clipPath id="clip0_1_21">
<rect width="342" height="48" fill="white"/>
</clipPath>
</defs>
</svg>
