<svg width="317" height="128" viewBox="0 0 317 128" fill="none" xmlns="http://www.w3.org/2000/svg">
<g clip-path="url(#clip0_3_102)">
<path d="M210.482 23.1308C214.807 23.6018 219.08 25.3223 222.868 28.3576C237.086 39.7533 235.993 64.8733 220.794 74.2018C209.894 80.8939 195.879 77.8978 188.636 67.4115C181.223 56.6831 182.171 40.1458 190.671 30.8827C196.049 25.0214 203.324 22.3589 210.482 23.1374V23.1308ZM193.523 50.8807C193.549 53.602 193.419 56.3364 193.909 59.0251C194.256 60.9483 194.603 62.8977 195.218 64.7425C199.32 77.0801 216.835 77.6492 221.186 65.2658C224.713 55.2243 224.288 45.0716 220.755 35.1675C216.633 23.5953 199.916 24.9233 195.643 35.7825C193.733 40.6364 193.36 45.7258 193.517 50.8807H193.523Z" fill="#C3171B"/>
<path d="M7.11124 47.6818C7.3337 44.8819 7.88984 42.1148 8.77966 39.4916C10.3957 34.7292 13.1895 30.7323 17.1414 27.625C23.9329 22.2935 32.5956 21.7832 40.1199 26.1531C41.049 26.696 41.9911 27.2128 42.8417 27.6969C44.1699 27.154 44.2811 25.9307 44.8307 25.041C45.4392 24.0532 46.0215 23.1701 48.0694 23.9812C47.9909 30.4575 49.1163 37.1562 48.8022 43.8025C46.4664 44.8296 46.2309 43.253 45.8449 42.0625C44.5494 38.0917 42.7893 34.3825 40.1657 31.0921C34.6762 24.1971 24.7377 24.5896 19.8567 31.9163C17.1022 36.0507 16.3301 40.7607 15.8459 45.5688C15.1786 52.2609 15.3683 58.8942 17.8873 65.2135C21.5382 74.3915 31.5815 77.6558 39.7927 72.3505C43.8427 69.7338 45.943 65.6976 47.1731 61.138C47.5002 59.9147 47.3693 58.0765 49.4434 58.4821C50.2351 59.0447 50.1958 59.7119 50.1173 60.3595C48.6583 72.0822 38.1636 79.5725 26.5304 77.3287C12.3586 74.6073 6.07093 60.7782 7.11124 47.6818Z" fill="#929AA7"/>
<path d="M277.605 73.9924C278.39 76.1185 277.416 76.8315 275.675 76.8446C271.102 76.8838 266.528 76.8904 261.955 76.8446C259.999 76.825 259.508 75.7848 260.188 74.1167C260.895 73.4822 261.7 73.698 262.439 73.5934C264.461 73.299 265.508 72.2392 265.488 70.0936C265.442 64.978 265.58 59.8558 265.442 54.7402C265.331 50.6648 263.348 47.9827 260.319 47.2238C257.087 46.4192 253.089 48.349 251.244 51.6133C250.256 53.3534 249.779 55.2243 249.792 57.2326C249.818 60.824 249.792 64.4219 249.792 68.0133C249.792 71.4281 251.558 73.3906 255.091 73.9008C255.981 75.6344 255.595 76.7857 253.456 76.825C248.882 76.9035 244.309 76.8773 239.735 76.8446C237.799 76.8315 237.262 75.8175 237.936 74.1298C238.636 73.4756 239.441 73.6719 240.174 73.5934C242.392 73.3579 243.419 72.1673 243.406 69.9039C243.36 63.4799 243.367 57.056 243.399 50.6321C243.412 48.0416 242.287 46.622 239.663 46.1837C237.583 45.837 237.609 45.68 237.602 43.1484C241.09 42.9521 244.597 42.7559 248.006 42.5662C249.02 44.5418 248.922 46.4454 249.523 48.1855C250.767 47.8453 251.303 46.8248 252.082 46.1118C255.922 42.5989 260.457 42.1017 265.213 43.3512C269.296 44.424 271.893 48.735 272.018 54.1973C272.116 58.554 272.044 62.9108 272.044 67.2676C272.044 71.0879 273.902 73.3273 277.618 73.9859L277.605 73.9924Z" fill="#C3171B"/>
<path d="M147.056 73.0308C148.345 74.9933 147.043 75.7391 145.754 76.3998C142.103 78.2642 139.035 77.0801 135.371 72.4421C134.441 72.5337 133.807 73.1944 133.185 73.7635C129.58 77.067 125.229 77.61 120.656 77.0605C117.293 76.6615 114.545 75.0391 113.472 71.7029C112.405 68.3797 113.609 65.4228 116.141 63.1529C120.446 59.2933 125.877 57.9915 131.34 56.8467C132.498 56.6047 133.754 56.7355 134.998 55.6234C135.377 52.6796 135.639 49.5331 132.747 47.2304C129.685 44.7969 126.237 45.1371 122.815 46.3277C121.042 46.9426 120.577 48.1528 121.506 49.9387C122.52 51.8881 122.933 53.9422 120.767 55.4599C119.393 56.428 117.842 56.3495 116.468 55.401C115.009 54.3936 114.388 52.9086 114.656 51.1358C114.996 48.8724 116.128 47.0407 117.986 45.7128C123.391 41.8466 129.273 41.3364 135.371 43.5932C139.113 44.9735 141.043 47.8911 141.089 51.9208C141.135 56.4934 141.109 61.0726 141.109 65.6453C141.109 66.6265 141.096 67.6078 141.109 68.589C141.2 73.3448 142.201 74.1298 147.049 73.0439L147.056 73.0308ZM134.526 59.4437C129.861 59.4634 125.406 60.4642 121.814 63.7547C119.674 65.7107 119.458 70.388 121.022 72.5467C122.514 74.6139 125.445 74.9475 128.769 73.685C133.303 71.9645 136.653 65.364 134.526 59.4437Z" fill="#929AA7"/>
<path d="M310.457 60.6997H288.303C286.988 66.2209 289.01 70.9113 293.275 72.9981C298.418 75.5166 302.632 73.77 308.553 66.6657C309.508 66.4172 310.221 66.8162 310.849 67.5619C310.81 67.8629 310.856 68.2227 310.725 68.4909C307.369 75.5101 300.158 79.1865 292.974 77.5707C285.503 75.8895 280.465 69.5375 280.366 61.7726C280.327 58.4886 280.419 55.2701 281.78 52.1759C284.763 45.3856 290.711 41.6176 297.502 42.3568C304.097 43.0699 309.377 48.2836 310.634 55.4664C310.889 56.9317 311.366 58.4559 310.45 60.6997H310.457ZM287.426 57.2784C292.229 57.2784 296.756 57.2915 301.284 57.2653C302.226 57.2653 302.874 56.7682 303.266 55.8654C304.601 52.8039 302.704 47.7668 299.511 45.9482C296.279 44.1166 292.556 44.9277 290.272 47.9434C288.303 50.547 287.537 53.5169 287.426 57.2719V57.2784Z" fill="#C3171B"/>
<path d="M108.421 60.2418C100.543 60.9876 93.0318 60.1568 85.6646 60.739C84.1139 65.1219 86.1226 70.5253 89.9698 72.7757C94.5694 75.4578 99.9607 74.4896 103.513 70.2964C104.214 69.4656 104.776 68.5236 105.417 67.6405C106.32 66.4041 107.204 66.7115 108.08 67.6601C105.417 77.2044 91.2391 81.2668 83.1587 73.3121C76.1448 66.4106 76.1251 53.6609 83.0409 46.5959C89.3809 40.1196 100.157 41.0878 105.241 48.6107C107.577 52.0647 108.159 55.9505 108.421 60.2484V60.2418ZM85.043 57.4354C89.9436 57.4354 94.3731 57.4485 98.8026 57.4224C99.8756 57.4158 100.615 56.8205 101.047 55.8262C102.192 53.203 100.7 48.4406 98.0895 46.4192C95.5574 44.4567 91.6906 44.267 89.2828 46.223C85.9263 48.9574 84.6635 52.588 85.043 57.4354Z" fill="#929AA7"/>
<path d="M54.5665 26.7942C53.8468 25.3354 54.2786 24.3607 55.8489 24.2364C59.4082 23.9616 62.9806 23.8373 66.3763 23.6607C67.4951 25.041 67.1549 26.4017 67.1614 27.6708C67.1876 40.6429 67.1745 53.6216 67.1745 66.5938C67.1745 70.8633 69.1396 73.3971 73.0696 74.1952C73.6912 75.2484 73.5342 76.2951 72.2321 76.3278C66.7819 76.4521 61.3318 76.4325 55.8816 76.3671C54.6123 76.354 54.2328 75.4905 54.7628 74.326C54.959 74.1952 55.1291 73.9859 55.3123 73.9728C61.672 73.5607 60.8214 72.5271 60.8345 67.575C60.8672 56.2383 60.8476 44.895 60.8411 33.5583C60.8411 28.0044 60.8083 27.9782 55.4498 27.167C55.1422 27.1213 54.8609 26.925 54.5599 26.7942H54.5665Z" fill="#929AA7"/>
<path d="M170.165 74.2934C170.636 76.1054 169.635 76.4325 168.425 76.4325C163.086 76.4521 157.747 76.4587 152.402 76.4325C150.975 76.426 150.066 75.9092 150.655 74.3588C150.844 74.1822 150.916 74.0513 151.001 74.0382C157.42 73.0766 156.838 72.6318 156.864 66.6331C156.89 61.838 156.877 57.0429 156.864 52.2479C156.851 47.0603 156.367 46.4978 151.335 45.667C150.923 45.6015 150.537 45.4053 150.144 45.2745C150.753 42.9783 155.15 42.2587 161.555 43.3708C162.635 46.4323 161.634 49.749 162.294 53.4974C163.413 51.3844 164.244 49.6312 165.232 47.9696C167.548 44.0708 170.46 42.5008 174.045 43.1092C177.749 43.7306 179.823 47.1715 178.612 50.6583C177.834 52.9086 176.263 53.8899 174.104 53.3992C171.88 52.8955 171.271 51.2863 171.297 49.2256C171.31 48.3883 171.991 47.5771 171.343 46.5566C169.465 46.3669 168.504 47.8453 167.548 49.0294C164.44 52.9151 163.315 57.5924 162.798 62.394C162.51 65.0892 162.746 67.8367 162.687 70.5581C162.641 72.7691 163.734 73.7046 165.86 73.7831C167.247 73.8354 168.693 73.4822 170.152 74.2934H170.165Z" fill="#929AA7"/>
<path d="M217.372 100.931L222.783 88.116H225.289L230.746 100.931H227.697L226.296 97.4052L227.468 98.3472H220.643L221.795 97.4052L220.395 100.931H217.378H217.372ZM224.013 91.5896L222.102 96.6463L221.625 95.7894H226.453L226.041 96.6463L224.098 91.5896H224.013Z" fill="#929AA7"/>
<path d="M234.881 101.147C234.167 101.147 233.526 100.951 232.97 100.558C232.407 100.166 231.969 99.6097 231.648 98.8966C231.328 98.1836 231.171 97.3201 231.171 96.3127C231.171 95.3053 231.328 94.4614 231.642 93.7287C231.956 93.0026 232.394 92.4465 232.964 92.054C233.526 91.6681 234.167 91.4718 234.887 91.4718C235.515 91.4718 236.084 91.6354 236.608 91.9625C237.131 92.2895 237.472 92.7147 237.642 93.2381H237.426V87.5468H240.363V100.925H237.458V99.2695H237.687C237.524 99.8386 237.177 100.297 236.66 100.63C236.137 100.97 235.548 101.14 234.887 101.14L234.881 101.147ZM235.823 98.7266C236.307 98.7266 236.699 98.5368 237.007 98.1509C237.315 97.7715 237.472 97.1565 237.472 96.3061C237.472 95.4557 237.315 94.8408 237.007 94.4614C236.699 94.082 236.3 93.8857 235.823 93.8857C235.345 93.8857 234.92 94.0754 234.606 94.4614C234.285 94.8408 234.128 95.4557 234.128 96.3061C234.128 97.1565 234.285 97.7715 234.606 98.1509C234.926 98.5303 235.332 98.7266 235.823 98.7266Z" fill="#929AA7"/>
<path d="M244.937 100.931L241.293 91.6942H244.361L246.54 97.8369H245.964L248.221 91.6942H251.107L247.417 100.931H244.944H244.937Z" fill="#929AA7"/>
<path d="M255.157 101.147C254.444 101.147 253.809 100.951 253.259 100.558C252.71 100.166 252.278 99.6097 251.964 98.8966C251.65 98.1836 251.493 97.3201 251.493 96.3126C251.493 95.3052 251.65 94.4614 251.964 93.7287C252.278 93.0026 252.71 92.4465 253.266 92.054C253.822 91.6681 254.45 91.4718 255.157 91.4718C255.818 91.4718 256.407 91.6419 256.93 91.9821C257.453 92.3222 257.794 92.7671 257.964 93.3296H257.8L257.983 91.6942H260.816C260.771 92.1063 260.738 92.525 260.718 92.9502C260.699 93.3754 260.686 93.7941 260.686 94.2062V100.931H257.767L257.754 99.3676H257.938C257.774 99.904 257.427 100.329 256.91 100.656C256.387 100.983 255.811 101.147 255.17 101.147H255.157ZM256.112 98.7265C256.609 98.7265 257.008 98.5368 257.316 98.1509C257.623 97.7714 257.781 97.1565 257.781 96.3061C257.781 95.4557 257.623 94.8408 257.316 94.4614C257.008 94.0819 256.609 93.8857 256.112 93.8857C255.615 93.8857 255.216 94.0754 254.908 94.4614C254.601 94.8408 254.444 95.4557 254.444 96.3061C254.444 97.1565 254.594 97.7714 254.895 98.1509C255.196 98.5303 255.602 98.7265 256.106 98.7265H256.112Z" fill="#929AA7"/>
<path d="M262.825 100.931V94.2063C262.825 93.7941 262.812 93.3755 262.792 92.9503C262.773 92.5251 262.74 92.1064 262.694 91.6943H265.527L265.691 93.297H265.508C265.782 92.7279 266.168 92.283 266.672 91.9625C267.17 91.6419 267.745 91.4784 268.393 91.4784C269.381 91.4784 270.12 91.7989 270.605 92.44C271.089 93.0811 271.331 94.0754 271.331 95.423V100.931H268.393V95.5669C268.393 94.9717 268.301 94.5595 268.112 94.324C267.922 94.0885 267.66 93.9708 267.32 93.9708C266.849 93.9708 266.469 94.1343 266.182 94.4614C265.894 94.7885 265.75 95.2333 265.75 95.7894V100.931H262.812H262.825Z" fill="#929AA7"/>
<path d="M277.71 101.147C276.526 101.147 275.629 100.833 275.034 100.198C274.432 99.5704 274.138 98.6153 274.138 97.3462V94.0754H272.574V91.6942H274.138V89.4962L277.075 88.7308V91.6942H279.136V94.0754H277.075V97.2416C277.075 97.7518 277.18 98.0985 277.396 98.2751C277.612 98.4583 277.874 98.5499 278.181 98.5499C278.377 98.5499 278.541 98.5368 278.678 98.5106C278.816 98.4845 278.96 98.4452 279.123 98.3864V100.859C278.894 100.97 278.652 101.042 278.404 101.088C278.155 101.127 277.926 101.153 277.717 101.153L277.71 101.147Z" fill="#929AA7"/>
<path d="M283.86 101.147C283.147 101.147 282.512 100.951 281.963 100.558C281.413 100.166 280.981 99.6097 280.667 98.8966C280.353 98.1836 280.196 97.3201 280.196 96.3126C280.196 95.3052 280.353 94.4614 280.667 93.7287C280.981 93.0026 281.413 92.4465 281.969 92.054C282.526 91.6681 283.154 91.4718 283.86 91.4718C284.521 91.4718 285.11 91.6419 285.633 91.9821C286.157 92.3222 286.497 92.7671 286.667 93.3296H286.504L286.687 91.6942H289.52C289.474 92.1063 289.441 92.525 289.422 92.9502C289.402 93.3754 289.389 93.7941 289.389 94.2062V100.931H286.471L286.458 99.3676H286.641C286.477 99.904 286.131 100.329 285.614 100.656C285.09 100.983 284.515 101.147 283.873 101.147H283.86ZM284.816 98.7265C285.313 98.7265 285.712 98.5368 286.019 98.1509C286.327 97.7714 286.484 97.1565 286.484 96.3061C286.484 95.4557 286.327 94.8408 286.019 94.4614C285.712 94.0819 285.313 93.8857 284.816 93.8857C284.318 93.8857 283.919 94.0754 283.612 94.4614C283.304 94.8408 283.147 95.4557 283.147 96.3061C283.147 97.1565 283.298 97.7714 283.599 98.1509C283.9 98.5303 284.305 98.7265 284.809 98.7265H284.816Z" fill="#929AA7"/>
<path d="M295.618 105C294.793 105 294.067 104.915 293.432 104.745C292.798 104.575 292.229 104.333 291.725 104.019L292.235 101.71C292.53 101.906 292.857 102.069 293.21 102.2C293.563 102.331 293.923 102.436 294.296 102.501C294.669 102.566 295.029 102.599 295.382 102.599C296.082 102.599 296.612 102.423 296.959 102.069C297.306 101.716 297.476 101.206 297.476 100.545V98.9293H297.626C297.45 99.4657 297.103 99.8909 296.586 100.218C296.069 100.545 295.493 100.709 294.852 100.709C294.126 100.709 293.485 100.519 292.922 100.146C292.359 99.7732 291.928 99.2368 291.614 98.5434C291.299 97.8499 291.142 97.0388 291.142 96.1099C291.142 95.1809 291.299 94.3305 291.614 93.6371C291.928 92.9437 292.366 92.4138 292.922 92.0344C293.485 91.6615 294.126 91.4718 294.852 91.4718C295.513 91.4718 296.089 91.6353 296.586 91.9559C297.083 92.2764 297.417 92.7016 297.594 93.2184L297.476 93.1792L297.639 91.6877H300.473C300.427 92.0998 300.394 92.5185 300.374 92.9437C300.355 93.3689 300.342 93.7876 300.342 94.1997V100.179C300.342 101.716 299.936 102.907 299.131 103.744C298.326 104.581 297.149 105 295.611 105H295.618ZM295.781 98.2948C296.298 98.2948 296.704 98.1051 296.992 97.7322C297.286 97.3593 297.43 96.8164 297.43 96.1164C297.43 95.3772 297.286 94.8211 296.992 94.4548C296.704 94.0885 296.298 93.8988 295.781 93.8988C295.264 93.8988 294.872 94.0819 294.564 94.4548C294.257 94.8277 294.1 95.3772 294.1 96.1164C294.1 96.8556 294.25 97.3593 294.564 97.7322C294.872 98.1051 295.278 98.2948 295.781 98.2948Z" fill="#929AA7"/>
<path d="M306.891 101.147C305.373 101.147 304.195 100.715 303.351 99.8452C302.507 98.9752 302.089 97.7977 302.089 96.3062C302.089 95.3642 302.265 94.5268 302.619 93.8007C302.972 93.0746 303.463 92.5054 304.104 92.0933C304.738 91.6812 305.491 91.4784 306.348 91.4784C307.205 91.4784 307.905 91.6877 308.474 92.0933C309.044 92.5054 309.469 93.068 309.75 93.7745C310.032 94.481 310.169 95.3118 310.169 96.2538V96.9276H304.549V95.4034H308.01L307.729 95.6585C307.729 94.9651 307.611 94.4549 307.375 94.1212C307.14 93.7876 306.806 93.6241 306.381 93.6241C305.883 93.6241 305.511 93.8269 305.249 94.2259C304.987 94.6249 304.863 95.2464 304.863 96.0772V96.4043C304.863 97.2024 305.039 97.7911 305.399 98.1705C305.759 98.5434 306.289 98.7331 306.989 98.7331C307.421 98.7331 307.827 98.6808 308.219 98.5696C308.612 98.4584 308.978 98.2817 309.332 98.0266L310.091 100.172C309.672 100.473 309.194 100.715 308.645 100.892C308.101 101.069 307.513 101.154 306.891 101.154V101.147Z" fill="#929AA7"/>
</g>
<defs>
<clipPath id="clip0_3_102">
<rect width="304" height="82" fill="white" transform="translate(7 23)"/>
</clipPath>
</defs>
</svg>
